<svg width="500" height="500" viewBox="0 0 500 500" fill="none" xmlns="http://www.w3.org/2000/svg">
<g clip-path="url(#clip0_53_491)">
<path d="M452.892 132.359C453.503 132.444 454.095 132.63 454.646 132.908C455.939 133.539 457.023 134.53 457.767 135.762C458.512 136.994 458.885 138.415 458.843 139.853C458.807 141.21 458.403 142.532 457.674 143.677C457.287 144.3 456.806 144.86 456.247 145.337C455.672 145.828 455.02 146.223 454.318 146.506C452.846 147.147 451.211 147.31 449.641 146.974C448.059 146.615 446.632 145.759 445.572 144.53C445.08 143.955 444.685 143.304 444.403 142.601C444.1 141.935 443.907 141.224 443.83 140.496C443.661 139.148 443.859 137.778 444.403 136.533C444.974 135.211 445.917 134.085 447.117 133.29C448.317 132.495 449.722 132.066 451.161 132.055C451.779 132.033 452.395 132.116 452.985 132.3C452.985 132.359 452.33 132.171 451.173 132.218C449.525 132.29 447.948 132.911 446.695 133.984C445.834 134.712 445.157 135.634 444.719 136.673C444.222 137.866 444.049 139.168 444.216 140.45C444.301 141.137 444.491 141.807 444.777 142.437C445.066 143.104 445.461 143.72 445.946 144.261C446.942 145.436 448.292 146.257 449.793 146.6C451.287 146.931 452.846 146.779 454.248 146.167C454.917 145.882 455.534 145.487 456.072 144.998C456.606 144.553 457.065 144.024 457.428 143.431C458.136 142.35 458.54 141.098 458.597 139.806C458.651 138.42 458.311 137.047 457.615 135.847C456.92 134.646 455.898 133.668 454.669 133.025C453.546 132.522 452.88 132.417 452.892 132.359Z" fill="#E0E0E0"/>
<path d="M458.832 124.431C458.826 124.345 458.826 124.26 458.832 124.174C458.832 123.975 458.832 123.718 458.832 123.379C458.832 122.654 458.832 121.613 458.832 120.257L458.89 120.327L452.144 118.854L452.261 118.795L450.483 122.572V122.642H450.401C448.908 122.707 447.429 122.971 446.005 123.426H445.923H445.865L442.79 120.467H443.024L437.178 124.186V123.975L438.581 127.904V127.997L438.511 128.079C437.502 129.179 436.641 130.405 435.95 131.727V131.821H435.833H431.671L431.846 131.669C431.378 133.785 430.864 136.065 430.349 138.415L430.244 138.193L434.009 139.97H434.114V140.087C434.175 141.575 434.43 143.05 434.874 144.472V144.588L434.781 144.682L431.834 147.64V147.383L435.529 153.229L435.283 153.136L439.212 151.732H439.329L439.434 151.814C440.522 152.827 441.741 153.688 443.059 154.375C443.117 154.457 442.954 154.188 443.176 154.562V158.724L443.012 158.514L449.747 160.034L449.513 160.151C450.109 158.876 450.682 157.625 451.302 156.374L451.36 156.269H451.489C452.974 156.212 454.445 155.956 455.862 155.509H455.979L456.072 155.603L459.03 158.549H458.773L464.619 154.866L464.537 155.088L463.134 151.16V151.054L463.216 150.961C464.231 149.868 465.096 148.645 465.788 147.324V147.231H470.068L469.904 147.371C470.442 145.033 470.945 142.765 471.424 140.625L471.518 140.812L467.753 139.011H467.671V138.918C467.62 137.425 467.368 135.947 466.923 134.522V134.44V134.381C467.998 133.305 468.957 132.335 469.881 131.423V131.587L466.209 125.741H466.326L462.386 127.109C461.559 126.342 460.662 125.653 459.708 125.051L458.984 124.618L458.75 124.466L459.007 124.583L459.744 124.981C460.722 125.565 461.638 126.246 462.48 127.015H462.409L466.326 125.589H466.396V125.659L470.115 131.505L470.173 131.598L470.103 131.669L467.297 134.498V134.358C467.76 135.808 468.024 137.315 468.08 138.836L467.998 138.707L471.775 140.485L471.892 140.543V140.672C471.424 142.8 470.921 145.033 470.395 147.406V147.547H466.057L466.221 147.453C465.514 148.805 464.634 150.059 463.602 151.183V150.984C464.058 152.27 464.537 153.58 465.005 154.913L465.064 155.065L464.923 155.147L459.077 158.853L458.937 158.935L458.82 158.818L455.885 155.907H456.096C454.641 156.368 453.131 156.632 451.606 156.69L451.781 156.573C451.197 157.812 450.612 159.075 449.992 160.338L449.922 160.49H449.758L443.024 159.052H442.86V154.714C443.082 155.088 442.918 154.819 442.977 154.901C441.626 154.199 440.375 153.318 439.259 152.282H439.469L435.541 153.673L435.377 153.732L435.295 153.591L431.6 147.745L431.507 147.605L431.624 147.488L434.57 144.53V144.74C434.113 143.285 433.849 141.775 433.787 140.251L433.904 140.426L430.162 138.579L430.022 138.509V138.357L431.542 131.622V131.47H435.856L435.693 131.563C436.404 130.218 437.288 128.972 438.323 127.857V128.032L436.932 124.092V123.975L437.049 123.893L442.895 120.21H443L443.082 120.292L446.04 123.25H445.9C447.348 122.797 448.85 122.542 450.366 122.49L450.261 122.56C450.916 121.204 451.524 119.93 452.062 118.795V118.714H452.144L458.867 120.269H458.925C458.925 121.613 458.925 122.607 458.925 123.367C458.925 123.706 458.925 123.975 458.925 124.162C458.899 124.254 458.868 124.343 458.832 124.431Z" fill="#E0E0E0"/>
<path d="M499.684 461.237C499.684 461.237 499.684 460.793 499.684 459.963C499.684 459.132 499.684 457.881 499.684 456.268C499.684 453.029 499.684 448.27 499.626 442.167C499.626 429.972 499.567 412.375 499.532 390.791L499.719 390.979L377.968 391.037L378.226 390.791C378.226 415.719 378.226 439.536 378.226 461.237L377.992 461.003L465.566 461.108L490.716 461.179H497.428H499.146H499.743H497.463H490.81L465.707 461.249L378.015 461.354H377.793V461.132C377.793 439.431 377.793 415.614 377.793 390.686V390.558H378.05H499.801H500V390.756C500 412.399 499.93 430.019 499.906 442.202C499.906 448.294 499.906 453.029 499.906 456.233C499.906 457.823 499.906 459.051 499.906 459.881C499.906 460.711 499.684 461.237 499.684 461.237Z" fill="#E0E0E0"/>
<path d="M499.731 399.315C499.731 399.455 472.5 399.561 438.932 399.561C405.363 399.561 378.132 399.455 378.132 399.315C378.132 399.175 405.352 399.07 438.932 399.07C472.512 399.07 499.731 399.175 499.731 399.315Z" fill="#E0E0E0"/>
<path d="M426.082 410.937H388.468V448.551H426.082V410.937Z" fill="#F5F5F5"/>
<path d="M490.857 417.134C490.674 417.159 490.489 417.159 490.307 417.134H488.717L482.871 417.204L463.625 417.286L444.38 417.204L438.534 417.134H436.944C436.761 417.159 436.577 417.159 436.394 417.134C436.577 417.114 436.761 417.114 436.944 417.134H438.534L444.38 417.052L463.625 416.982L482.871 417.052L488.717 417.134H490.307C490.49 417.114 490.674 417.114 490.857 417.134Z" fill="#E0E0E0"/>
<path d="M492.061 425.541C491.874 425.561 491.686 425.561 491.499 425.541H489.874L483.911 425.622L464.245 425.693L444.567 425.622L438.604 425.541H436.979C436.792 425.561 436.604 425.561 436.417 425.541C436.601 425.496 436.79 425.476 436.979 425.482H438.604L444.567 425.412L464.245 425.33L483.911 425.412L489.874 425.482H491.499C491.688 425.476 491.877 425.496 492.061 425.541Z" fill="#E0E0E0"/>
<path d="M492.061 433.935C491.874 433.961 491.686 433.961 491.499 433.935H489.874L483.911 434.006L464.245 434.087L444.567 434.006L438.604 433.935H436.979C436.792 433.961 436.604 433.961 436.417 433.935C436.604 433.915 436.792 433.915 436.979 433.935H438.604L444.567 433.854L464.245 433.783L483.946 433.819L489.909 433.9H491.535C491.711 433.894 491.887 433.906 492.061 433.935Z" fill="#E0E0E0"/>
<path d="M492.061 442.343C491.874 442.363 491.686 442.363 491.499 442.343H489.874L483.911 442.424L464.245 442.495L444.567 442.424L438.604 442.343H436.979C436.792 442.363 436.604 442.363 436.417 442.343C436.601 442.298 436.79 442.278 436.979 442.284H438.604L444.567 442.214L464.245 442.132L483.911 442.214L489.874 442.284H491.499C491.688 442.278 491.877 442.298 492.061 442.343Z" fill="#E0E0E0"/>
<path d="M183.389 112.37C203.151 92.6075 203.151 60.5669 183.389 40.8048C163.627 21.0427 131.586 21.0427 111.824 40.8048C92.0618 60.5669 92.0618 92.6075 111.824 112.37C131.586 132.132 163.627 132.132 183.389 112.37Z" fill="#F5F5F5"/>
<path d="M170.595 78.1417C170.003 78.2297 169.405 78.2688 168.806 78.2586L163.884 78.3522C159.71 78.3522 153.899 78.4574 147.339 78.4574H147.012V74.8679C147.012 67.5369 147.012 60.9074 147.106 56.1603C147.106 53.8219 147.187 51.9278 147.211 50.4662C147.193 49.7701 147.236 49.0737 147.339 48.385C147.435 49.0744 147.478 49.7702 147.468 50.4662C147.468 51.9278 147.468 53.8453 147.573 56.1603C147.573 60.9658 147.667 67.5953 147.667 74.8679C147.667 76.0371 147.667 77.1011 147.667 78.1534L147.351 77.826C153.91 77.826 159.721 77.826 163.896 77.9312L168.818 78.0365C169.412 78.0155 170.007 78.0508 170.595 78.1417Z" fill="#E0E0E0"/>
<path d="M147.48 34.2959C147.801 35.6862 147.911 37.117 147.807 38.5402C147.911 39.9672 147.8 41.4018 147.48 42.7961C147.159 41.4018 147.048 39.9672 147.152 38.5402C147.048 37.117 147.158 35.6862 147.48 34.2959Z" fill="#E0E0E0"/>
<path d="M170.595 41.1127C169.854 42.3154 168.931 43.3961 167.859 44.3163C166.943 45.3849 165.866 46.3041 164.667 47.0406C165.41 45.8428 166.333 44.7662 167.403 43.8486C168.325 42.7825 169.4 41.8603 170.595 41.1127Z" fill="#E0E0E0"/>
<path d="M184.018 55.8448C182.947 56.7631 181.769 57.5483 180.51 58.1833C179.37 58.9997 178.138 59.6787 176.839 60.206C177.777 59.1432 178.908 58.2666 180.171 57.6221C181.325 56.7847 182.632 56.181 184.018 55.8448Z" fill="#E0E0E0"/>
<path d="M191.922 77.6972C189.992 78.0303 188.03 78.1401 186.076 78.0246C184.121 78.1401 182.159 78.0303 180.229 77.6972C182.16 77.3713 184.121 77.2615 186.076 77.3699C188.03 77.2615 189.991 77.3713 191.922 77.6972Z" fill="#E0E0E0"/>
<path d="M111.538 76.9257C109.733 77.2483 107.896 77.3582 106.066 77.253C104.235 77.3574 102.399 77.2475 100.594 76.9257C102.399 76.6038 104.235 76.4939 106.066 76.5983C107.896 76.4931 109.733 76.603 111.538 76.9257Z" fill="#E0E0E0"/>
<path d="M117.232 93.2014C115.997 94.6031 114.608 95.862 113.093 96.9546C111.704 98.2024 110.178 99.289 108.545 100.193C109.773 98.7847 111.162 97.525 112.684 96.4402C114.063 95.1805 115.59 94.093 117.232 93.2014Z" fill="#E0E0E0"/>
<path d="M131.251 105.782C130.434 107.475 129.492 109.105 128.433 110.658C127.557 112.322 126.56 113.92 125.452 115.44C125.985 113.617 126.802 111.889 127.872 110.319C128.756 108.64 129.896 107.11 131.251 105.782Z" fill="#E0E0E0"/>
<path d="M147.48 122.011C147.154 120.08 147.044 118.12 147.152 116.165C147.044 114.21 147.154 112.249 147.48 110.319C147.806 112.249 147.916 114.21 147.807 116.165C147.916 118.12 147.806 120.08 147.48 122.011Z" fill="#E0E0E0"/>
<path d="M172.466 114.282C170.694 113.476 169.076 112.369 167.684 111.008C166.155 109.811 164.838 108.364 163.79 106.729C165.3 107.912 166.745 109.177 168.116 110.517C169.633 111.694 171.084 112.95 172.466 114.282Z" fill="#E0E0E0"/>
<path d="M184.193 101.654C182.774 100.699 181.481 99.5679 180.347 98.287C179.066 97.1526 177.934 95.86 176.979 94.4403C178.395 95.4005 179.684 96.5358 180.814 97.8194C182.098 98.9501 183.233 100.239 184.193 101.654Z" fill="#E0E0E0"/>
<path d="M116.694 61.3399C115.428 60.5359 114.285 59.5512 113.303 58.4169C112.169 57.435 111.184 56.2927 110.38 55.0261C111.647 55.8301 112.789 56.8149 113.771 57.9492C114.905 58.931 115.89 60.0733 116.694 61.3399Z" fill="#E0E0E0"/>
<path d="M131.169 46.0934C129.925 45.3334 128.802 44.3914 127.837 43.299C126.727 42.3249 125.769 41.1899 124.996 39.9316C126.239 40.7116 127.358 41.6733 128.316 42.7845C129.427 43.7387 130.389 44.8541 131.169 46.0934Z" fill="#E0E0E0"/>
<g opacity="0.8">
<path fill-rule="evenodd" clip-rule="evenodd" d="M422.843 50.6533C425.497 52.0367 427.958 53.7624 430.162 55.7861L437.938 53.0151L445.245 64.5553L439.399 70.4014C440.296 73.2433 440.807 76.1927 440.919 79.1706L448.379 82.6782L445.362 96.0541H437.178C435.803 98.6995 434.08 101.149 432.057 103.338L434.828 111.114L423.287 118.421L417.441 112.575C414.6 113.476 411.651 113.991 408.672 114.107L405.164 121.555L391.835 118.573V110.319C389.187 108.944 386.737 107.217 384.551 105.186L376.776 107.957L369.363 96.4517L375.209 90.6056C374.303 87.7803 373.776 84.8472 373.642 81.8832L366.183 78.3755L369.176 65.0464H377.431C378.805 62.3981 380.532 59.9478 382.563 57.7621L379.792 49.9868L391.333 42.6792L397.179 48.5253C400.024 47.6257 402.977 47.1106 405.96 46.9936L409.467 39.5457L422.796 42.5389V50.7234L422.843 50.6533ZM411.092 66.3442C408.267 65.7111 405.317 65.9297 402.615 66.9723C399.913 68.0149 397.581 69.8348 395.913 72.202C394.245 74.5693 393.316 77.3778 393.244 80.2727C393.171 83.1676 393.958 86.0191 395.505 88.4671C397.052 90.915 399.29 92.8495 401.936 94.0263C404.582 95.2031 407.517 95.5693 410.371 95.0788C413.225 94.5882 415.87 93.2628 417.971 91.2701C420.072 89.2773 421.536 86.7066 422.177 83.8825C422.605 82.0029 422.657 80.0573 422.332 78.1572C422.006 76.2572 421.308 74.4403 420.278 72.8107C419.248 71.1811 417.907 69.771 416.33 68.6613C414.754 67.5516 412.974 66.7641 411.092 66.3442Z" fill="#EBEBEB"/>
</g>
<path d="M31.1072 167.914H117.63C117.63 167.914 109.983 154.001 87.7209 156.023C66.4644 157.964 65.3771 149.183 54.5618 148.096C43.7465 147.009 34.7084 155.31 31.1072 167.914Z" fill="#F5F5F5"/>
<path d="M218.299 325.163H288.301C288.301 325.163 282.115 313.903 264.098 315.54C246.887 317.107 246.01 309.998 237.206 309.121C228.401 308.244 221.211 314.956 218.299 325.163Z" fill="#F5F5F5"/>
<path d="M478.3 497.557C478.3 497.697 375.3 497.817 248.16 497.817C121.02 497.817 18 497.737 18 497.557C18 497.377 121 497.297 248.16 497.297C375.32 497.297 478.3 497.417 478.3 497.557Z" fill="#263238"/>
<path d="M455.19 145.13H309.91V242.41H455.19V145.13Z" fill="white"/>
<path d="M455.19 242.4C455.19 242.4 455.19 241.79 455.19 240.63V235.5C455.19 231 455.19 224.39 455.13 215.94C455.13 199.03 455.07 174.74 455.02 145.13L455.23 145.33L309.96 145.39L310.22 145.13C310.22 179.78 310.22 212.73 310.22 242.4L309.98 242.16L414.65 242.28L444.55 242.34H452.5H454.56H452.56H444.65L414.8 242.4L309.98 242.52H309.74V242.28C309.74 212.61 309.74 179.66 309.74 145.01V144.74H310.01L455.28 144.8H455.49V145.01C455.49 174.68 455.41 199.01 455.38 215.94C455.38 224.38 455.38 230.94 455.33 235.46C455.33 237.69 455.33 239.4 455.33 240.56C455.33 241.72 455.19 242.4 455.19 242.4Z" fill="#FF725E"/>
<path d="M309.91 153.81C309.91 153.66 342.41 153.55 382.49 153.55C422.57 153.55 455.07 153.66 455.07 153.81C455.07 153.96 422.58 154.07 382.49 154.07C342.4 154.07 309.91 154 309.91 153.81Z" fill="#FF725E"/>
<g opacity="0.3">
<path d="M315.64 149.43C315.64 149.662 315.571 149.888 315.442 150.081C315.313 150.274 315.13 150.424 314.915 150.512C314.701 150.6 314.465 150.623 314.238 150.577C314.011 150.531 313.802 150.418 313.639 150.254C313.476 150.089 313.365 149.88 313.321 149.652C313.277 149.425 313.302 149.189 313.392 148.975C313.482 148.762 313.634 148.58 313.827 148.452C314.021 148.325 314.248 148.258 314.48 148.26C314.633 148.26 314.785 148.29 314.926 148.349C315.068 148.408 315.196 148.495 315.304 148.603C315.412 148.712 315.497 148.841 315.555 148.983C315.612 149.125 315.641 149.277 315.64 149.43Z" fill="#FF725E"/>
</g>
<g opacity="0.3">
<path d="M319.63 149.43C319.63 149.662 319.561 149.888 319.432 150.081C319.303 150.274 319.12 150.424 318.905 150.512C318.691 150.6 318.455 150.623 318.228 150.577C318.001 150.531 317.792 150.418 317.629 150.254C317.466 150.089 317.355 149.88 317.311 149.652C317.267 149.425 317.292 149.189 317.382 148.975C317.472 148.762 317.624 148.58 317.817 148.452C318.011 148.325 318.238 148.258 318.47 148.26C318.623 148.26 318.775 148.29 318.916 148.349C319.058 148.408 319.186 148.495 319.294 148.603C319.402 148.712 319.487 148.841 319.545 148.983C319.602 149.125 319.631 149.277 319.63 149.43Z" fill="#FF725E"/>
</g>
<g opacity="0.3">
<path d="M323.56 149.43C323.56 149.662 323.491 149.888 323.362 150.081C323.233 150.274 323.05 150.424 322.835 150.512C322.621 150.6 322.385 150.623 322.158 150.577C321.931 150.531 321.722 150.418 321.559 150.254C321.396 150.089 321.285 149.88 321.241 149.652C321.197 149.425 321.222 149.189 321.312 148.975C321.402 148.762 321.554 148.58 321.747 148.452C321.941 148.325 322.168 148.258 322.4 148.26C322.553 148.26 322.705 148.29 322.846 148.349C322.988 148.408 323.116 148.495 323.224 148.603C323.332 148.712 323.417 148.841 323.475 148.983C323.532 149.125 323.561 149.277 323.56 149.43Z" fill="#FF725E"/>
</g>
<path d="M361.15 163.95H322.4V202.7H361.15V163.95Z" fill="#FF725E"/>
<path d="M435.27 174.9C435.27 175.05 420.15 175.16 401.51 175.16C382.87 175.16 367.75 175.05 367.75 174.9C367.75 174.75 382.87 174.64 401.51 174.64C420.15 174.64 435.27 174.76 435.27 174.9Z" fill="#FF725E"/>
<path d="M435.27 182.11C435.27 182.25 420.15 182.37 401.51 182.37C382.87 182.37 367.75 182.25 367.75 182.11C367.75 181.97 382.87 181.85 401.51 181.85C420.15 181.85 435.27 182 435.27 182.11Z" fill="#FF725E"/>
<path d="M435.27 189.31C435.27 189.45 420.15 189.57 401.51 189.57C382.87 189.57 367.75 189.45 367.75 189.31C367.75 189.17 382.87 189.05 401.51 189.05C420.15 189.05 435.27 189.16 435.27 189.31Z" fill="#FF725E"/>
<path d="M407.66 196.51C407.141 196.591 406.615 196.625 406.09 196.61L401.81 196.69C398.2 196.74 393.21 196.77 387.71 196.77C382.21 196.77 377.21 196.77 373.6 196.69L369.32 196.61C368.795 196.625 368.269 196.591 367.75 196.51C368.269 196.429 368.795 196.395 369.32 196.41L373.6 196.33C377.21 196.28 382.2 196.25 387.71 196.25C393.22 196.25 398.2 196.25 401.81 196.33L406.09 196.41C406.615 196.395 407.141 196.429 407.66 196.51Z" fill="#FF725E"/>
<g opacity="0.3">
<path d="M343.03 215.77H324.82V233.98H343.03V215.77Z" fill="#FF725E"/>
</g>
<path d="M376.06 215.77H357.85V233.98H376.06V215.77Z" fill="#FF725E"/>
<path d="M409.09 215.77H390.88V233.98H409.09V215.77Z" fill="#FF725E"/>
<path d="M442.12 215.77H423.91V233.98H442.12V215.77Z" fill="#FF725E"/>
<g opacity="0.3">
<path d="M361.15 163.95H322.4V202.7H361.15V163.95Z" fill="white"/>
</g>
<g opacity="0.3">
<path d="M376.06 215.77H357.85V233.98H376.06V215.77Z" fill="white"/>
</g>
<g opacity="0.3">
<path d="M409.09 215.77H390.88V233.98H409.09V215.77Z" fill="white"/>
</g>
<g opacity="0.3">
<path d="M442.12 215.77H423.91V233.98H442.12V215.77Z" fill="white"/>
</g>
<path d="M173.63 180.17H44.21V232.74H173.63V180.17Z" fill="white"/>
<path d="M173.63 232.74C173.63 232.74 173.63 232.42 173.63 231.8C173.63 231.18 173.63 230.27 173.63 229.07C173.63 226.67 173.63 223.15 173.63 218.61C173.63 209.54 173.63 196.41 173.55 180.17L173.69 180.31L44.28 180.37L44.49 180.17C44.49 198.58 44.49 216.35 44.49 232.74L44.29 232.54L137.08 232.63L164 232.69H171.21H173.07H171.25H164.09L137.22 232.74L44.29 232.83H44V180H44.21L173.62 180.07H173.77V180.21C173.77 196.49 173.71 209.64 173.69 218.74C173.69 223.26 173.69 226.74 173.69 229.17C173.69 230.35 173.69 231.25 173.69 231.87C173.69 232.49 173.63 232.74 173.63 232.74Z" fill="#FF725E"/>
<path d="M44.3401 187.26C44.3401 187.15 73.2701 187.05 108.94 187.05C144.61 187.05 173.56 187.15 173.56 187.26C173.56 187.37 144.63 187.46 108.94 187.46C73.2501 187.46 44.3401 187.37 44.3401 187.26Z" fill="#FF725E"/>
<g opacity="0.3">
<path d="M49.7599 184.09C49.7599 184.276 49.7048 184.458 49.6015 184.612C49.4982 184.767 49.3514 184.887 49.1796 184.958C49.0078 185.03 48.8188 185.048 48.6365 185.012C48.4542 184.976 48.2867 184.886 48.1552 184.755C48.0237 184.623 47.9342 184.456 47.8979 184.273C47.8617 184.091 47.8803 183.902 47.9514 183.73C48.0226 183.558 48.1431 183.412 48.2976 183.308C48.4522 183.205 48.634 183.15 48.8199 183.15C49.0692 183.15 49.3083 183.249 49.4846 183.425C49.6608 183.602 49.7599 183.841 49.7599 184.09Z" fill="#FF725E"/>
</g>
<g opacity="0.3">
<path d="M53.0001 184.09C53.0001 184.276 52.945 184.458 52.8417 184.612C52.7384 184.767 52.5916 184.887 52.4198 184.958C52.2481 185.03 52.0591 185.048 51.8767 185.012C51.6944 184.976 51.5269 184.886 51.3954 184.755C51.264 184.623 51.1744 184.456 51.1382 184.273C51.1019 184.091 51.1205 183.902 51.1917 183.73C51.2628 183.558 51.3833 183.412 51.5379 183.308C51.6925 183.205 51.8742 183.15 52.0601 183.15C52.3094 183.15 52.5485 183.249 52.7248 183.425C52.9011 183.602 53.0001 183.841 53.0001 184.09Z" fill="#FF725E"/>
</g>
<g opacity="0.3">
<path d="M56.15 184.09C56.15 184.276 56.0949 184.458 55.9916 184.612C55.8883 184.767 55.7415 184.887 55.5697 184.958C55.398 185.03 55.209 185.048 55.0266 185.012C54.8443 184.976 54.6768 184.886 54.5453 184.755C54.4139 184.623 54.3244 184.456 54.2881 184.273C54.2518 184.091 54.2704 183.902 54.3416 183.73C54.4127 183.558 54.5332 183.412 54.6878 183.308C54.8424 183.205 55.0241 183.15 55.21 183.15C55.4593 183.15 55.6984 183.249 55.8747 183.425C56.051 183.602 56.15 183.841 56.15 184.09Z" fill="#FF725E"/>
</g>
<path d="M86.47 195.8H55.21V227.06H86.47V195.8Z" fill="#FF725E"/>
<path d="M164.68 204.18C164.68 204.29 148.59 204.39 128.75 204.39C108.91 204.39 92.8201 204.29 92.8201 204.18C92.8201 204.07 108.91 203.98 128.75 203.98C148.59 203.98 164.68 204.07 164.68 204.18Z" fill="#FF725E"/>
<path d="M164.68 210.55C164.68 210.66 148.59 210.75 128.75 210.75C108.91 210.75 92.8201 210.66 92.8201 210.55C92.8201 210.44 108.91 210.34 128.75 210.34C148.59 210.34 164.68 210.44 164.68 210.55Z" fill="#FF725E"/>
<path d="M139.08 216.92C138.924 216.931 138.767 216.931 138.61 216.92H137.26L132.31 216.98L115.95 217.04L99.6 216.98L94.6 216.92H93.25C93.0935 216.93 92.9365 216.93 92.78 216.92C92.9359 216.897 93.0942 216.897 93.25 216.92H94.6L99.6 216.85L115.95 216.79L132.31 216.85L137.26 216.92H138.61C138.766 216.896 138.924 216.896 139.08 216.92Z" fill="#FF725E"/>
<g opacity="0.3">
<path d="M86.47 195.8H55.21V227.06H86.47V195.8Z" fill="#F5F5F5"/>
</g>
<path d="M268.73 114.11C266.56 112.66 263.58 113.54 261.41 114.99C259.24 116.44 257.41 118.42 254.96 119.36C250.4 121.13 244.41 119.03 240.87 122.36C238.62 124.5 238.39 128.02 236.67 130.61C233.77 134.97 226.81 136.61 226.22 141.81C225.87 144.81 228.27 147.75 231.22 148.6C232.71 148.95 234.258 148.975 235.759 148.675C237.26 148.375 238.679 147.756 239.92 146.86C242.92 144.86 245.23 141.86 248.61 140.72C251.99 139.58 256.34 140.53 259.07 138.12C261.8 135.71 261.39 131.26 263.35 128.18C264.529 126.632 265.927 125.264 267.5 124.12C268.97 122.85 270.37 121.28 270.62 119.35C270.87 117.42 270.08 114.13 268.75 114.06" fill="#F5F5F5"/>
<path d="M212.38 326.56C212.51 326.49 212.91 326.89 213.29 327.46C213.67 328.03 213.88 328.57 213.76 328.65C213.64 328.73 213.24 328.33 212.85 327.75C212.46 327.17 212.26 326.64 212.38 326.56Z" fill="#263238"/>
<path d="M208.1 317.54C208.64 318.194 209.044 318.949 209.29 319.76C209.685 320.508 209.927 321.327 210 322.17C209.055 320.774 208.408 319.198 208.1 317.54Z" fill="#263238"/>
<path d="M205.78 307.82C206.421 309.379 206.731 311.055 206.69 312.74C206.291 311.994 206.049 311.174 205.98 310.33C205.746 309.515 205.678 308.662 205.78 307.82Z" fill="#263238"/>
<path d="M205.43 297.83C205.747 299.484 205.723 301.185 205.36 302.83C205.106 302.023 205.028 301.17 205.13 300.33C205.052 299.485 205.154 298.633 205.43 297.83Z" fill="#263238"/>
<path d="M207 288C207.081 288.843 206.989 289.694 206.73 290.5C206.63 291.34 206.365 292.153 205.95 292.89C205.87 292.047 205.962 291.196 206.22 290.39C206.322 289.55 206.587 288.738 207 288Z" fill="#263238"/>
<path d="M210.64 278.65C210.306 280.295 209.624 281.85 208.64 283.21C208.74 282.368 209.009 281.556 209.43 280.82C210 279.55 210.51 278.58 210.64 278.65Z" fill="#263238"/>
<path d="M216.15 270.31C215.873 271.112 215.438 271.85 214.87 272.48C214.42 273.194 213.848 273.824 213.18 274.34C213.04 274.25 213.62 273.28 214.45 272.17C215.28 271.06 216 270.22 216.15 270.31Z" fill="#263238"/>
<path d="M222.87 262.91C222.98 263.01 222.29 263.91 221.34 264.91C220.39 265.91 219.53 266.63 219.42 266.54C219.31 266.45 220 265.54 220.96 264.54C221.92 263.54 222.77 262.8 222.87 262.91Z" fill="#263238"/>
<path d="M229.91 255.79C230.02 255.89 229.31 256.79 228.34 257.79C227.37 258.79 226.5 259.49 226.4 259.39C226.3 259.29 227 258.39 227.97 257.39C228.94 256.39 229.81 255.69 229.91 255.79Z" fill="#263238"/>
<path d="M236.49 248.25C236.173 249.037 235.7 249.751 235.1 250.35C234.22 251.43 233.42 252.22 233.31 252.12C233.636 251.338 234.108 250.626 234.7 250.02C235.57 249 236.37 248.17 236.49 248.25Z" fill="#263238"/>
<path d="M241.59 239.67C241.5 240.518 241.213 241.333 240.75 242.05C240.433 242.842 239.936 243.551 239.3 244.12C239.494 243.297 239.833 242.515 240.3 241.81C240.606 241.029 241.042 240.305 241.59 239.67Z" fill="#263238"/>
<path d="M244 230C244.195 230.831 244.178 231.697 243.95 232.52C243.892 233.374 243.628 234.201 243.18 234.93C243.129 234.091 243.216 233.25 243.44 232.44C243.494 231.602 243.683 230.778 244 230Z" fill="#263238"/>
<path d="M243.28 220.07C243.723 220.799 243.978 221.628 244.02 222.48C244.225 223.311 244.225 224.179 244.02 225.01C243.705 224.229 243.523 223.401 243.48 222.56C243.279 221.746 243.211 220.905 243.28 220.07Z" fill="#263238"/>
<path d="M239.35 210.92C239.47 210.84 240.2 211.71 240.86 212.92C241.337 213.631 241.632 214.448 241.72 215.3C241.169 214.665 240.724 213.946 240.4 213.17C239.937 212.478 239.583 211.719 239.35 210.92Z" fill="#263238"/>
<path d="M232.38 203.82C233.195 204.076 233.936 204.525 234.54 205.13C235.61 206.03 236.31 206.93 236.21 207.03C236.11 207.13 235.21 206.41 234.21 205.53C233.21 204.65 232.29 203.94 232.38 203.82Z" fill="#263238"/>
<path d="M223.29 199.76C224.142 199.708 224.994 199.866 225.77 200.22C226.605 200.413 227.378 200.812 228.02 201.38C227.183 201.285 226.366 201.059 225.6 200.71C224.782 200.527 224.001 200.205 223.29 199.76Z" fill="#263238"/>
<path d="M213.35 199.31C214.115 198.928 214.966 198.749 215.82 198.79C216.669 198.665 217.535 198.754 218.34 199.05C217.528 199.261 216.688 199.349 215.85 199.31C215.022 199.441 214.178 199.441 213.35 199.31Z" fill="#263238"/>
<path d="M204.13 203C204.04 202.88 204.9 202.13 206.13 201.47C206.838 200.984 207.663 200.698 208.52 200.64C207.868 201.167 207.144 201.598 206.37 201.92C205.681 202.39 204.926 202.754 204.13 203Z" fill="#263238"/>
<path d="M197.26 210.18C197.478 209.352 197.901 208.592 198.49 207.97C199.34 206.86 200.22 206.13 200.32 206.23C200.42 206.33 199.73 207.23 198.9 208.29C198.07 209.35 197.38 210.25 197.26 210.18Z" fill="#263238"/>
<path d="M193.89 219.52C193.733 218.678 193.798 217.809 194.08 217C194.206 216.147 194.55 215.341 195.08 214.66C195.049 215.499 194.89 216.328 194.61 217.12C194.495 217.952 194.252 218.762 193.89 219.52Z" fill="#263238"/>
<path d="M195.08 229.37C194.55 228.689 194.206 227.883 194.08 227.03C193.793 226.222 193.724 225.353 193.88 224.51C194.227 225.273 194.466 226.081 194.59 226.91C194.871 227.702 195.036 228.531 195.08 229.37Z" fill="#263238"/>
<path d="M200.15 237.93C200.04 238.03 199.21 237.25 198.4 236.11C197.834 235.469 197.433 234.701 197.23 233.87C197.36 233.8 198.02 234.7 198.82 235.81C199.376 236.439 199.825 237.156 200.15 237.93Z" fill="#263238"/>
<path d="M207.51 244.68C206.702 244.409 205.967 243.958 205.36 243.36C204.27 242.49 203.52 241.64 203.62 241.53C204.383 241.886 205.08 242.369 205.68 242.96C206.75 243.82 207.6 244.56 207.51 244.68Z" fill="#263238"/>
<path d="M216.18 249.65C214.55 249.215 213.031 248.442 211.72 247.38C212.555 247.523 213.353 247.829 214.07 248.28C214.859 248.589 215.576 249.055 216.18 249.65Z" fill="#263238"/>
<path d="M225.7 252.68C224.851 252.777 223.992 252.674 223.19 252.38C222.345 252.255 221.543 251.929 220.85 251.43C221.693 251.443 222.527 251.595 223.32 251.88C224.155 252.004 224.96 252.274 225.7 252.68Z" fill="#263238"/>
<path d="M235.66 253.19C234.035 253.689 232.303 253.724 230.66 253.29C231.471 253.075 232.313 253.001 233.15 253.07C233.987 252.971 234.836 253.011 235.66 253.19Z" fill="#263238"/>
<path d="M245.28 250.62C243.906 251.619 242.275 252.205 240.58 252.31C241.285 251.85 242.063 251.512 242.88 251.31C243.635 250.945 244.447 250.711 245.28 250.62Z" fill="#263238"/>
<path d="M253.62 245.15C253.72 245.26 252.96 246.15 251.85 246.95C251.229 247.533 250.478 247.962 249.66 248.2C249.58 248.07 250.45 247.38 251.54 246.54C252.155 245.969 252.857 245.5 253.62 245.15Z" fill="#263238"/>
<path d="M260.13 237.59C259.898 238.41 259.477 239.164 258.9 239.79C258.07 240.91 257.24 241.68 257.13 241.59C257.02 241.5 257.67 240.59 258.49 239.48C259.31 238.37 260 237.51 260.13 237.59Z" fill="#263238"/>
<path d="M264.46 228.59C264.457 229.444 264.248 230.284 263.85 231.04C263.33 232.34 262.72 233.3 262.59 233.23C262.71 232.399 262.971 231.594 263.36 230.85C263.6 230.042 263.972 229.278 264.46 228.59Z" fill="#263238"/>
<path d="M266.4 218.8C266.617 220.481 266.382 222.19 265.72 223.75C265.692 222.075 265.922 220.406 266.4 218.8Z" fill="#263238"/>
<path d="M266.14 208.81C266.466 209.592 266.623 210.433 266.6 211.28C266.743 212.116 266.72 212.973 266.53 213.8C266.06 212.177 265.928 210.476 266.14 208.8V208.81Z" fill="#263238"/>
<path d="M264 199.05C264.463 199.762 264.773 200.562 264.91 201.4C265.211 202.191 265.347 203.035 265.31 203.88C264.851 203.166 264.542 202.367 264.4 201.53C264.098 200.739 263.962 199.895 264 199.05Z" fill="#263238"/>
<path d="M260.14 189.81C260.27 189.74 260.87 190.7 261.47 191.95C261.893 192.687 262.159 193.505 262.25 194.35C261.292 192.968 260.578 191.433 260.14 189.81Z" fill="#263238"/>
<path d="M255.22 181.1C255.35 181.02 256.01 181.93 256.71 183.1C257.196 183.787 257.537 184.566 257.71 185.39C257.088 184.827 256.581 184.148 256.22 183.39C255.742 182.699 255.402 181.921 255.22 181.1Z" fill="#263238"/>
<path d="M250.26 172.41C250.39 172.34 251.03 173.27 251.7 174.47C252.183 175.17 252.523 175.958 252.7 176.79C252.088 176.202 251.598 175.498 251.26 174.72C250.771 174.027 250.431 173.241 250.26 172.41Z" fill="#263238"/>
<path d="M246.35 163.21C247.255 164.634 247.851 166.231 248.1 167.9C247.571 167.234 247.189 166.464 246.98 165.64C246.607 164.881 246.393 164.054 246.35 163.21Z" fill="#263238"/>
<path d="M244.65 153.38C244.944 154.17 245.093 155.007 245.09 155.85C245.264 156.672 245.294 157.518 245.18 158.35C244.786 157.593 244.58 156.753 244.58 155.9C244.407 155.066 244.431 154.203 244.65 153.38Z" fill="#263238"/>
<path d="M245.48 143.43C245.56 144.267 245.499 145.112 245.3 145.93C245.264 146.773 245.078 147.603 244.75 148.38C244.556 147.548 244.556 146.682 244.75 145.85C244.799 144.997 245.049 144.168 245.48 143.43Z" fill="#263238"/>
<path d="M248.74 134C248.613 134.834 248.342 135.639 247.94 136.38C247.692 137.185 247.31 137.942 246.81 138.62C247.022 136.933 247.69 135.336 248.74 134Z" fill="#263238"/>
<path d="M254.31 125.71C254.42 125.81 253.76 126.71 252.92 127.8C252.08 128.89 251.37 129.8 251.25 129.67C251.487 128.849 251.92 128.098 252.51 127.48C253.36 126.38 254.21 125.62 254.31 125.71Z" fill="#263238"/>
<path d="M261.82 119.13C261.9 119.25 261.03 119.96 259.95 120.8C259.337 121.378 258.63 121.848 257.86 122.19C257.76 122.08 258.53 121.19 259.63 120.39C260.251 119.804 261.001 119.372 261.82 119.13Z" fill="#263238"/>
<path d="M270.72 114.61C270.047 115.116 269.293 115.505 268.49 115.76C267.758 116.172 266.959 116.453 266.13 116.59C266.06 116.46 267.01 115.84 268.29 115.29C269.033 114.869 269.867 114.636 270.72 114.61Z" fill="#263238"/>
<path d="M278 112.77C278 112.91 277.49 113.13 276.82 113.25C276.15 113.37 275.57 113.37 275.54 113.25C275.51 113.13 276.04 112.89 276.72 112.76C277.4 112.63 278 112.63 278 112.77Z" fill="#263238"/>
<path d="M298.38 83.33C298.38 83.33 310.12 74.95 326.38 80.33C326.38 80.33 327.71 93.79 314.68 104.49" fill="#FF725E"/>
<path d="M261.35 108.19C261.85 108.94 274.6 129.43 274.6 129.43L312.87 105.85C314.45 104.877 315.81 103.586 316.865 102.059C317.919 100.532 318.645 98.8034 318.997 96.9815C319.349 95.1597 319.318 93.2846 318.907 91.4752C318.496 89.6658 317.714 87.9614 316.61 86.47C314.559 83.7019 311.52 81.8308 308.124 81.246C304.729 80.6612 301.239 81.4076 298.38 83.33L261.35 108.19Z" fill="#FF725E"/>
<path d="M274.6 129.43L273.74 143.85C273.74 143.85 298.54 131.85 292.35 118.49L274.6 129.43Z" fill="#263238"/>
<path d="M279.08 96.29C279.08 96.29 262.26 88.87 248.42 99.75L261.35 108.19L279.08 96.29Z" fill="#263238"/>
<path d="M279 108.2L255.07 123.2C255.07 123.2 255.89 125.78 256.53 125.56C257.17 125.34 275.06 114.76 280.89 111.31C281.113 111.177 281.304 110.998 281.452 110.785C281.599 110.571 281.698 110.328 281.743 110.073C281.787 109.817 281.776 109.555 281.71 109.305C281.644 109.054 281.525 108.82 281.36 108.62C281.086 108.274 280.694 108.041 280.26 107.963C279.825 107.886 279.377 107.97 279 108.2Z" fill="#263238"/>
<path d="M308.473 98.607C309.441 94.489 306.889 90.3652 302.771 89.3963C298.653 88.4274 294.529 90.9802 293.56 95.0983C292.591 99.2163 295.144 103.34 299.262 104.309C303.38 105.278 307.504 102.725 308.473 98.607Z" fill="#FAFAFA"/>
<path d="M308.67 96.85C308.61 96.85 308.67 96.17 308.33 95.01C307.883 93.3678 306.897 91.9236 305.53 90.91C304.601 90.2132 303.523 89.744 302.38 89.54C301.073 89.307 299.727 89.4243 298.48 89.88C297.086 90.3736 295.873 91.2762 295 92.47C294.064 93.7387 293.56 95.2736 293.56 96.85C293.56 98.4264 294.064 99.9613 295 101.23C295.864 102.418 297.061 103.322 298.44 103.83C299.687 104.285 301.033 104.402 302.34 104.17C303.483 103.966 304.561 103.497 305.49 102.8C306.855 101.784 307.84 100.341 308.29 98.7C308.6 97.54 308.57 96.85 308.63 96.85C308.656 97.0157 308.656 97.1844 308.63 97.35C308.627 97.8216 308.57 98.2914 308.46 98.75C308.121 100.206 307.368 101.533 306.29 102.569C305.213 103.606 303.858 104.308 302.39 104.59C300.929 104.876 299.417 104.74 298.03 104.198C296.643 103.656 295.44 102.731 294.56 101.53C293.553 100.177 293.01 98.5361 293.01 96.85C293.01 95.1639 293.553 93.5227 294.56 92.17C295.485 90.9055 296.772 89.9503 298.25 89.43C299.489 88.981 300.822 88.8547 302.124 89.0629C303.425 89.271 304.652 89.8069 305.69 90.62C307.122 91.7007 308.128 93.2515 308.53 95C308.64 95.4586 308.697 95.9284 308.7 96.4C308.712 96.5507 308.702 96.7024 308.67 96.85Z" fill="#263238"/>
<path d="M318 102C317.9 102 317.79 100.51 317.2 98.18C316.851 96.8172 316.407 95.4805 315.87 94.18C314.537 91.0054 312.655 88.0907 310.31 85.57C309.349 84.5445 308.317 83.5888 307.22 82.71C305.33 81.22 304.02 80.5 304.07 80.41C304.403 80.5218 304.722 80.6729 305.02 80.86C305.388 81.0508 305.745 81.2611 306.09 81.49C306.49 81.76 306.96 82.04 307.44 82.42C308.589 83.2659 309.663 84.2094 310.65 85.24C313.093 87.7604 315.016 90.737 316.31 94C316.839 95.3266 317.257 96.6946 317.56 98.09C317.71 98.68 317.77 99.23 317.85 99.71C317.916 100.117 317.96 100.528 317.98 100.94C318.038 101.291 318.044 101.648 318 102Z" fill="#263238"/>
<path d="M315.94 103.06C315.84 103.06 315.72 101.55 315.12 99.18C314.764 97.7972 314.313 96.4407 313.77 95.12C313.088 93.5096 312.275 91.9577 311.34 90.48C310.387 89.0161 309.316 87.6315 308.14 86.34C307.165 85.2894 306.115 84.3102 305 83.41C303.09 81.88 301.76 81.14 301.81 81.05C302.161 81.165 302.497 81.3229 302.81 81.52C303.18 81.7147 303.537 81.9318 303.88 82.17C304.29 82.44 304.77 82.74 305.25 83.17C306.402 84.0272 307.486 84.9734 308.49 86C309.71 87.2957 310.811 88.6979 311.78 90.19C312.727 91.6961 313.54 93.2821 314.21 94.93C314.745 96.28 315.17 97.6712 315.48 99.09C315.63 99.69 315.69 100.25 315.77 100.73C315.844 101.143 315.89 101.561 315.91 101.98C315.96 102.338 315.97 102.7 315.94 103.06Z" fill="#263238"/>
<path d="M52.3169 470.065C51.3113 466.089 53.9421 462.114 56.8768 459.25C59.8116 456.385 63.3076 453.824 64.8509 450.024C67.3414 443.874 64.0792 435.865 68.3586 430.744C70.8373 427.727 75.2804 426.745 77.4785 423.518C78.5029 421.739 79.185 419.784 79.4896 417.754C81.8788 407.515 86.975 398.106 94.2452 390.511C94.6982 399.643 92.6784 408.727 88.399 416.807C86.6803 420.034 84.5757 423.179 84.0028 426.792C83.044 432.638 86.3412 438.706 84.8212 444.459C83.1259 451.03 75.713 455.403 75.3155 462.173C74.9881 467.913 79.9923 472.965 79.548 478.694C79.2406 481.128 78.3546 483.453 76.9641 485.475C72.3807 492.783 65.8682 497.822 56.0116 497.6L43.9219 497.951L52.3169 470.065Z" fill="#FF725E"/>
<g opacity="0.3">
<path d="M52.3169 470.065C51.3113 466.089 53.9421 462.114 56.8768 459.25C59.8116 456.385 63.3076 453.824 64.8509 450.024C67.3414 443.874 64.0792 435.865 68.3586 430.744C70.8373 427.727 75.2804 426.745 77.4785 423.518C78.5029 421.739 79.185 419.784 79.4896 417.754C81.8788 407.515 86.975 398.106 94.2452 390.511C94.6982 399.643 92.6784 408.727 88.399 416.807C86.6803 420.034 84.5757 423.179 84.0028 426.792C83.044 432.638 86.3412 438.706 84.8212 444.459C83.1259 451.03 75.713 455.403 75.3155 462.173C74.9881 467.913 79.9923 472.965 79.548 478.694C79.2406 481.128 78.3546 483.453 76.9641 485.475C72.3807 492.783 65.8682 497.822 56.0116 497.6L43.9219 497.951L52.3169 470.065Z" fill="black"/>
</g>
<path d="M41.4665 498.255C40.359 498.422 39.2306 498.39 38.1343 498.161C36.7985 497.957 35.4864 497.62 34.2174 497.156C32.4669 496.532 30.8314 495.623 29.3768 494.466C28.5043 493.758 27.8246 492.841 27.4008 491.801C27.0424 490.63 26.8573 489.412 26.8513 488.188C26.8331 486.878 26.7473 485.571 26.594 484.271C26.3659 482.89 25.8694 481.567 25.1325 480.377C23.7294 477.863 21.3676 475.49 20.631 472.076C19.8944 468.662 20.4322 465.061 21.0169 461.494C21.6015 457.928 22.1861 453.918 20.7947 450.13C19.4033 446.341 16.8895 442.915 15.5917 438.648C14.2938 434.38 14.9369 429.715 14.6797 425.143C14.6129 422.824 14.0926 420.54 13.148 418.42C12.1775 416.281 10.8096 414.258 9.79233 412.001C7.67604 407.43 7.32527 402.273 6.76405 397.211C6.49513 394.662 6.21451 392.078 5.94559 389.482C5.7794 386.863 5.34052 384.269 4.63606 381.742C3.83879 379.189 2.89003 376.687 1.79486 374.247C1.22518 372.983 0.763634 371.672 0.415174 370.33C0.216186 368.95 0.0912898 367.561 0.041024 366.168C-0.0734397 363.376 0.0517354 360.579 0.415174 357.808C0.754249 355.025 1.2804 352.254 1.5844 349.46C1.5844 349.296 1.5844 349.132 1.5844 348.98L1.64286 348.431L2.13393 348.676C4.69317 349.992 6.9109 351.885 8.61141 354.207C10.2756 356.47 11.6101 358.958 12.5751 361.596C14.5628 366.799 15.2526 372.248 16.2464 377.439C17.2403 382.63 18.4913 387.763 21.1221 392.089C22.4433 394.252 24.0334 396.228 25.4248 398.333C26.9047 400.388 27.9146 402.743 28.3829 405.231C29.0611 410.353 26.2199 414.831 26.7811 419.356C27.0734 421.585 27.8388 423.725 29.026 425.634C30.1134 427.575 31.3645 429.364 32.6038 431.176C33.8467 432.936 34.9231 434.807 35.8192 436.765C36.6747 438.687 37.1777 440.746 37.3041 442.845C37.573 446.926 36.9767 450.784 37.3041 454.444C37.6156 457.92 38.6089 461.301 40.2272 464.394C41.6653 467.376 43.2788 470.076 44.6234 472.684C45.2945 473.941 45.8994 475.233 46.4357 476.554C46.9188 477.787 47.2676 479.069 47.4763 480.377C47.8088 482.665 47.8088 484.988 47.4763 487.276C47.142 490.471 45.9277 493.51 43.9687 496.057C43.6738 496.436 43.3451 496.788 42.9865 497.109C42.7474 497.36 42.4807 497.584 42.1915 497.775L41.5016 498.255C42.3629 497.562 43.1469 496.778 43.8401 495.916C45.7166 493.367 46.8681 490.357 47.1723 487.206C47.4579 484.943 47.4185 482.652 47.0554 480.401C46.838 479.12 46.4853 477.866 46.0031 476.659C45.5004 475.408 44.8339 474.145 44.1908 472.848C42.8228 470.264 41.1976 467.574 39.7244 464.569C38.0603 461.426 37.0313 457.985 36.6961 454.444C36.3921 450.714 36.9767 446.844 36.6961 442.857C36.5718 440.839 36.0888 438.859 35.2697 437.011C34.379 435.09 33.3145 433.254 32.0894 431.527C30.9202 429.727 29.5872 427.926 28.4648 425.95C27.2553 423.952 26.4823 421.721 26.1965 419.402C25.647 414.574 28.4648 410.049 27.7633 405.313C27.3021 402.937 26.3198 400.693 24.887 398.742C23.519 396.673 21.9172 394.697 20.5609 392.487C17.8483 388.032 16.5387 382.817 15.5683 377.591C14.5978 372.365 13.8729 366.975 11.9203 361.877C10.9816 359.309 9.68243 356.888 8.06188 354.686C6.43298 352.466 4.31192 350.653 1.86501 349.389L2.42623 349.074L2.36777 349.565C2.04039 352.394 1.52593 355.165 1.19855 357.913C0.835401 360.645 0.710214 363.403 0.8244 366.156C0.894553 367.501 0.976398 368.915 1.17517 370.19C1.52155 371.481 1.96718 372.744 2.50808 373.966C3.61631 376.433 4.57677 378.963 5.38437 381.543C6.08718 384.106 6.52212 386.735 6.6822 389.388C6.96282 391.984 7.23173 394.568 7.50065 397.117C8.05019 402.203 8.40096 407.278 10.4354 411.686C11.4526 413.884 12.7738 415.906 13.7794 418.128C14.7582 420.341 15.2983 422.724 15.3695 425.143C15.6034 429.82 14.972 434.368 16.2114 438.507C17.4507 442.647 20.0581 446.061 21.3676 449.978C22.6771 453.894 22.151 457.998 21.5547 461.611C20.9584 465.224 20.3855 468.79 21.1104 472.006C21.8353 475.221 24.0685 477.618 25.5067 480.19C26.2613 481.429 26.7657 482.803 26.9916 484.236C27.1419 485.552 27.22 486.875 27.2254 488.199C27.2138 489.387 27.3793 490.569 27.7165 491.707C28.115 492.701 28.7537 493.581 29.5756 494.268C30.9778 495.413 32.5576 496.321 34.2524 496.957C35.5005 497.44 36.7928 497.801 38.1109 498.033C38.9218 498.179 39.7425 498.265 40.5662 498.29C41.1742 498.243 41.4665 498.255 41.4665 498.255Z" fill="#263238"/>
<path d="M4.08643 355.656C4.14045 355.772 4.17973 355.894 4.20335 356.019C4.26182 356.311 4.35535 356.662 4.46058 357.106C4.69443 358.065 4.96335 359.503 5.40766 361.304C5.85196 363.104 6.96272 365.127 7.8864 367.629C8.81009 370.131 9.81562 372.984 10.7042 376.211C11.5928 379.438 12.4113 383.028 13.2414 386.863C13.9478 390.981 15.2268 394.979 17.0414 398.742C18.0236 400.707 19.1226 402.706 19.9995 404.881C20.8554 407.116 21.4289 409.449 21.7066 411.826C22.2869 416.746 23.126 421.633 24.2204 426.465C26.5589 436.38 28.8973 445.827 30.8967 454.432C32.896 463.038 34.8954 470.731 36.4972 477.244C38.0991 483.756 39.3151 488.936 40.2037 492.631L41.1741 496.828C41.2677 497.273 41.3495 497.635 41.408 497.927C41.4209 498.052 41.4209 498.177 41.408 498.302C41.3485 498.187 41.3053 498.065 41.2794 497.939L40.9637 496.863C40.6947 495.858 40.3206 494.466 39.7944 492.701L35.8425 477.372C34.2056 470.872 32.253 463.155 30.0899 454.608C27.9269 446.061 25.7404 436.555 23.3435 426.628C22.278 421.76 21.474 416.838 20.9349 411.884C20.6805 409.563 20.1304 407.284 19.298 405.103C18.4562 402.987 17.3688 400.999 16.3866 399.011C14.5799 395.218 13.3089 391.193 12.6101 387.05C11.8033 383.203 11.0433 379.626 10.1781 376.41C9.31285 373.195 8.40086 370.307 7.47718 367.828C6.55349 365.349 5.55965 363.28 5.13874 361.421C4.71782 359.562 4.50735 358.159 4.33197 357.188C4.25012 356.744 4.19166 356.37 4.14489 356.077C4.10564 355.941 4.08596 355.799 4.08643 355.656Z" fill="#263238"/>
<path d="M39.3266 498.278C31.4578 493.543 29.2713 479.29 32.6153 470.731C35.9593 462.172 41.7703 454.362 42.7057 445.242C43.4306 438.227 41.174 431.001 42.846 424.196C45.1143 414.936 54.1991 407.827 54.1524 398.286C54.1524 392.943 51.1124 387.892 51.3813 382.548C51.7204 376.001 56.7714 370.856 59.9166 365.08C64.7338 356.276 65.108 345.835 66.7917 335.943C68.4753 326.052 72.3104 315.459 81.1146 310.641C82.3657 319.06 84.5521 324.836 83.7921 336.224C83.5115 340.305 78.7177 348.115 78.0162 357.071C77.6069 362.426 77.303 367.793 76.9522 373.16C76.6014 378.526 76.2273 383.683 74.3331 388.558C72.8833 392.288 70.5565 395.667 69.4692 399.526C67.423 406.786 70.0187 414.667 68.2999 422.021C66.8969 428.253 62.5474 433.597 61.6237 439.91C60.3376 448.797 66.0317 458.057 63.0385 466.522C61.5535 470.719 58.081 474.075 57.0754 478.413C56.292 481.78 57.0754 485.346 56.3973 488.725C55.2281 494.174 44.822 498.348 39.2682 497.986" fill="#FF725E"/>
<path d="M78.8933 318.92C78.9089 319.079 78.9089 319.24 78.8933 319.399C78.8933 319.75 78.7881 320.206 78.7062 320.779C78.5192 321.948 78.3087 323.772 77.8878 326.076C77.4669 328.379 76.2158 330.998 75.2453 334.131C74.2749 337.265 73.1992 340.878 72.2872 344.935C71.3752 348.992 70.5918 353.459 69.7734 358.276C68.9549 363.093 68.0546 368.343 65.6343 373.359C64.4651 375.873 63.2959 378.398 62.3137 381.076C61.3895 383.835 60.8122 386.698 60.595 389.599C60.1213 395.765 59.3133 401.901 58.1747 407.979C55.6843 420.42 53.3224 432.276 51.1594 443.056L45.1262 471.632C43.3841 479.723 41.9693 486.282 40.9872 490.877C40.4844 493.11 40.0985 494.864 39.8179 496.104L39.5022 497.46C39.4696 497.616 39.4227 497.769 39.3619 497.916C39.3488 497.76 39.3488 497.604 39.3619 497.448C39.4321 497.098 39.5139 496.642 39.6075 496.069C39.853 494.818 40.1921 493.064 40.6364 490.819C41.5601 486.212 42.893 479.629 44.5299 471.515C46.1668 463.401 48.1896 453.661 50.376 442.904L57.3913 407.827C58.5191 401.771 59.327 395.659 59.8116 389.517C60.0364 386.555 60.6335 383.632 61.5888 380.819C62.5593 378.083 63.8337 375.545 64.9562 373.055C67.3648 368.121 68.23 362.953 69.1069 358.147C69.9838 353.342 70.7672 348.793 71.7377 344.795C72.7081 340.796 73.7487 337.125 74.8127 333.991C75.8767 330.858 77.081 328.25 77.5604 325.994C78.0398 323.737 78.297 321.937 78.5309 320.744C78.6361 320.171 78.7296 319.727 78.7881 319.376C78.811 319.221 78.8461 319.069 78.8933 318.92Z" fill="#263238"/>
<path d="M409.44 287.76H402.47V310.28H409.44V287.76Z" fill="#FF725E"/>
<path d="M422.27 278.49H415.3V310.27H422.27V278.49Z" fill="#FF725E"/>
<path d="M435.92 274.16H428.95V310.27H435.92V274.16Z" fill="#FF725E"/>
<path d="M449.58 269.6H442.61V310.28H449.58V269.6Z" fill="#FF725E"/>
<path d="M167.52 317C168.042 317.073 168.549 317.232 169.02 317.47C170.126 318.01 171.053 318.858 171.69 319.911C172.327 320.965 172.646 322.18 172.61 323.41C172.579 324.571 172.234 325.701 171.61 326.68C170.918 327.769 169.92 328.628 168.74 329.15C167.473 329.713 166.058 329.853 164.705 329.548C163.352 329.244 162.134 328.512 161.23 327.46C160.812 326.966 160.474 326.409 160.23 325.81C159.971 325.24 159.805 324.633 159.74 324.01C159.595 322.857 159.765 321.685 160.23 320.62C160.718 319.49 161.525 318.526 162.551 317.846C163.577 317.167 164.779 316.799 166.01 316.79C166.538 316.77 167.066 316.841 167.57 317C167.57 317 167.01 316.89 166.02 316.93C164.609 316.986 163.259 317.519 162.19 318.44C161.453 319.063 160.874 319.851 160.5 320.74C160.075 321.76 159.927 322.874 160.07 323.97C160.143 324.558 160.305 325.131 160.55 325.67C160.797 326.241 161.135 326.767 161.55 327.23C162.409 328.217 163.562 328.904 164.839 329.19C166.116 329.476 167.452 329.346 168.65 328.82C169.222 328.576 169.749 328.238 170.21 327.82C170.667 327.437 171.062 326.985 171.38 326.48C171.845 325.749 172.154 324.93 172.286 324.074C172.418 323.218 172.371 322.344 172.147 321.507C171.923 320.67 171.528 319.889 170.986 319.213C170.444 318.537 169.768 317.981 169 317.58C168.07 317.11 167.51 317 167.52 317Z" fill="#263238"/>
<path d="M172.6 310.19C172.595 310.117 172.595 310.043 172.6 309.97C172.6 309.8 172.6 309.58 172.6 309.29C172.6 308.67 172.6 307.78 172.6 306.62L172.65 306.68L166.88 305.42L166.98 305.37L165.46 308.6V308.66H165.39C164.112 308.716 162.848 308.941 161.63 309.33H161.56L161.51 309.28L158.97 306.77H159L154 309.95L154.06 309.78L155.26 313.14V313.22L155.2 313.29C154.337 314.23 153.601 315.279 153.01 316.41V316.49H153H149.44L149.59 316.36C149.19 318.17 148.75 320.12 148.31 322.12L148.22 321.93L151.44 323.46L151.53 323.51V323.61C151.586 324.883 151.805 326.143 152.18 327.36V327.46L152.1 327.54L149.58 330.07V329.85L152.74 334.85L152.53 334.77L155.89 333.57H156L156.08 333.64C157.01 334.506 158.053 335.243 159.18 335.83C159.23 335.9 159.09 335.67 159.28 335.99V339.55L159.14 339.37L164.9 340.67L164.7 340.77C165.21 339.68 165.7 338.61 166.23 337.54L166.28 337.45H166.39C167.66 337.402 168.918 337.183 170.13 336.8H170.24L170.31 336.87L172.84 339.4H172.62L177.62 336.25L177.55 336.44C177.14 335.3 176.75 334.18 176.35 333.08V332.99L176.42 332.91C177.288 331.975 178.028 330.93 178.62 329.8V329.72H182.28L182.14 329.84C182.6 327.84 183.03 325.9 183.44 324.07L183.52 324.23L180.3 322.69H180.23V322.61C180.186 321.334 179.971 320.069 179.59 318.85V318.78V318.73L182.12 316.2V316.34L178.98 311.34H179.08L175.71 312.51C175.002 311.854 174.236 311.265 173.42 310.75L172.8 310.38L172.6 310.25L172.82 310.35L173.45 310.69C174.284 311.189 175.068 311.768 175.79 312.42H175.73L179.08 311.2H179.14V311.26L182.32 316.26V316.33L182.26 316.4L179.75 318.93V318.81C180.146 320.05 180.372 321.339 180.42 322.64L180.35 322.53L183.58 324.05L183.68 324.1V324.21C183.28 326.03 182.85 327.94 182.4 329.97V330.09H178.71L178.85 330.01C178.248 331.165 177.494 332.234 176.61 333.19V333.03C177 334.13 177.41 335.25 177.81 336.39L177.86 336.52L177.74 336.59L172.74 339.75L172.62 339.83L172.52 339.73L169.99 337.21H170.17C168.926 337.605 167.634 337.83 166.33 337.88L166.48 337.78C165.98 338.84 165.48 339.92 164.95 341L164.89 341.13H164.75L158.99 339.84H158.85V336C159.04 336.32 158.85 336.09 158.95 336.16C157.794 335.56 156.724 334.806 155.77 333.92H155.95L152.59 335.11L152.45 335.16L152.38 335.04L149.22 330.04L149.14 329.92L149.24 329.82L151.76 327.29V327.47C151.369 326.225 151.143 324.934 151.09 323.63L151.19 323.77L148 322.29L147.88 322.23V322.1L149.18 316.34V316.21H153L152.87 316.29C153.471 315.138 154.224 314.071 155.11 313.12V313.27L153.92 309.9V309.79L154.02 309.73L159.02 306.58L159.11 306.53L159.19 306.6L161.71 309.13H161.59C162.828 308.743 164.113 308.524 165.41 308.48L165.32 308.54L166.87 305.32V305.25H166.94L172.69 306.58H172.74C172.74 307.73 172.74 308.58 172.74 309.23C172.74 309.52 172.74 309.75 172.74 309.91C172.7 310.007 172.653 310.1 172.6 310.19Z" fill="#263238"/>
<path fill-rule="evenodd" clip-rule="evenodd" d="M161.72 265.33C162.983 265.99 164.153 266.813 165.2 267.78L168.92 266.46L172.41 271.97L169.63 274.77C170.056 276.132 170.302 277.544 170.36 278.97L173.92 280.66L172.49 287H168.55C167.887 288.263 167.06 289.433 166.09 290.48L167.42 294.2L161.9 297.69L159.1 295C157.741 295.425 156.332 295.671 154.91 295.73L153.22 299.29L146.85 297.86V293.92C145.585 293.259 144.415 292.432 143.37 291.46L139.65 292.79L136.15 287.27L138.94 284.48C138.515 283.118 138.27 281.706 138.21 280.28L134.65 278.59L136.07 272.22H140C140.657 270.956 141.481 269.785 142.45 268.74L141.14 265L146.65 261.5L149.45 264.29C150.812 263.864 152.224 263.618 153.65 263.56L155.34 260L161.71 261.43V265.37L161.72 265.33ZM156.1 272.83C154.749 272.528 153.339 272.633 152.048 273.131C150.757 273.63 149.643 274.501 148.847 275.632C148.05 276.764 147.607 278.107 147.573 279.49C147.54 280.874 147.917 282.237 148.657 283.406C149.398 284.575 150.468 285.499 151.733 286.06C152.998 286.621 154.401 286.795 155.765 286.558C157.129 286.322 158.392 285.687 159.395 284.734C160.398 283.78 161.096 282.55 161.4 281.2C161.602 280.302 161.626 279.374 161.469 278.467C161.312 277.56 160.977 276.694 160.485 275.916C159.993 275.139 159.352 274.466 158.6 273.937C157.847 273.407 156.998 273.031 156.1 272.83Z" fill="#FF725E"/>
<g opacity="0.8">
<path fill-rule="evenodd" clip-rule="evenodd" d="M161.72 265.33C162.983 265.99 164.153 266.813 165.2 267.78L168.92 266.46L172.41 271.97L169.63 274.77C170.056 276.132 170.302 277.544 170.36 278.97L173.92 280.66L172.49 287H168.55C167.887 288.263 167.06 289.433 166.09 290.48L167.42 294.2L161.9 297.69L159.1 295C157.741 295.425 156.332 295.671 154.91 295.73L153.22 299.29L146.85 297.86V293.92C145.585 293.259 144.415 292.432 143.37 291.46L139.65 292.79L136.15 287.27L138.94 284.48C138.515 283.118 138.27 281.706 138.21 280.28L134.65 278.59L136.07 272.22H140C140.657 270.956 141.481 269.785 142.45 268.74L141.14 265L146.65 261.5L149.45 264.29C150.812 263.864 152.224 263.618 153.65 263.56L155.34 260L161.71 261.43V265.37L161.72 265.33ZM156.1 272.83C154.749 272.528 153.339 272.633 152.048 273.131C150.757 273.63 149.643 274.501 148.847 275.632C148.05 276.764 147.607 278.107 147.573 279.49C147.54 280.874 147.917 282.237 148.657 283.406C149.398 284.575 150.468 285.499 151.733 286.06C152.998 286.621 154.401 286.795 155.765 286.558C157.129 286.322 158.392 285.687 159.395 284.734C160.398 283.78 161.096 282.55 161.4 281.2C161.602 280.302 161.626 279.374 161.469 278.467C161.312 277.56 160.977 276.694 160.485 275.916C159.993 275.139 159.352 274.466 158.6 273.937C157.847 273.407 156.998 273.031 156.1 272.83Z" fill="white"/>
</g>
<path fill-rule="evenodd" clip-rule="evenodd" d="M138.68 302.87C139.406 303.253 140.079 303.73 140.68 304.29L142.85 303.52L144.85 306.73L143.23 308.36C143.48 309.151 143.624 309.971 143.66 310.8L145.73 311.8L145 315.5H142.7C142.315 316.225 141.838 316.898 141.28 317.5L142.05 319.66L138.83 321.66L137.21 320.04C136.415 320.286 135.591 320.427 134.76 320.46L133.76 322.54L130.05 321.7V319.41C129.322 319.025 128.649 318.544 128.05 317.98L125.88 318.75L123.88 315.54L125.5 313.91C125.254 313.119 125.112 312.298 125.08 311.47L123 310.47L123.83 306.76H126C126.389 306.035 126.87 305.363 127.43 304.76L126.66 302.6L129.87 300.6L131.5 302.23C132.29 301.975 133.111 301.831 133.94 301.8L134.94 299.73L138.65 300.56V302.86L138.68 302.87ZM135.41 307.23C134.623 307.052 133.8 307.111 133.046 307.4C132.292 307.69 131.641 308.196 131.176 308.856C130.71 309.515 130.45 310.298 130.43 311.105C130.409 311.912 130.629 312.708 131.06 313.39C131.492 314.072 132.116 314.611 132.854 314.939C133.592 315.266 134.411 315.367 135.206 315.229C136.002 315.091 136.739 314.72 137.323 314.163C137.908 313.606 138.314 312.888 138.49 312.1C138.726 311.046 138.534 309.941 137.957 309.028C137.379 308.115 136.463 307.469 135.41 307.23Z" fill="#FF725E"/>
<g opacity="0.4">
<path fill-rule="evenodd" clip-rule="evenodd" d="M138.68 302.87C139.406 303.253 140.079 303.73 140.68 304.29L142.85 303.52L144.85 306.73L143.23 308.36C143.48 309.151 143.624 309.971 143.66 310.8L145.73 311.8L145 315.5H142.7C142.315 316.225 141.838 316.898 141.28 317.5L142.05 319.66L138.83 321.66L137.21 320.04C136.415 320.286 135.591 320.427 134.76 320.46L133.76 322.54L130.05 321.7V319.41C129.322 319.025 128.649 318.544 128.05 317.98L125.88 318.75L123.88 315.54L125.5 313.91C125.254 313.119 125.112 312.298 125.08 311.47L123 310.47L123.83 306.76H126C126.389 306.035 126.87 305.363 127.43 304.76L126.66 302.6L129.87 300.6L131.5 302.23C132.29 301.975 133.111 301.831 133.94 301.8L134.94 299.73L138.65 300.56V302.86L138.68 302.87ZM135.41 307.23C134.623 307.052 133.8 307.111 133.046 307.4C132.292 307.69 131.641 308.196 131.176 308.856C130.71 309.515 130.45 310.298 130.43 311.105C130.409 311.912 130.629 312.708 131.06 313.39C131.492 314.072 132.116 314.611 132.854 314.939C133.592 315.266 134.411 315.367 135.206 315.229C136.002 315.091 136.739 314.72 137.323 314.163C137.908 313.606 138.314 312.888 138.49 312.1C138.726 311.046 138.534 309.941 137.957 309.028C137.379 308.115 136.463 307.469 135.41 307.23Z" fill="white"/>
</g>
<path d="M391.897 270.684C394.493 269.931 396.766 268.324 398.352 266.118C399.938 263.913 400.747 261.237 400.65 258.514C400.502 256.018 399.598 253.697 399.697 251.25C399.858 247.506 402.359 244.248 404.241 240.953C406.123 237.658 407.373 233.327 405.182 230.232C403.77 228.223 401.257 227.324 399.536 225.577C397.815 223.829 397.06 221.495 396.143 219.261C395.227 217.027 394.076 214.718 391.996 213.532C389.915 212.347 386.733 212.858 385.879 215.118" fill="#263238"/>
<path d="M369.412 209.114C373.126 206.73 374.018 201.226 372 197.295C369.981 193.363 365.722 190.967 361.389 190.255C358.236 189.772 355.014 190.047 351.986 191.058C348.959 192.068 346.211 193.786 343.968 196.071C341.578 198.568 339.634 201.8 336.39 202.936C333.543 203.947 330.385 203.036 327.389 203.435C325.391 203.8 323.499 204.609 321.852 205.806C320.204 207.002 318.843 208.555 317.868 210.35C315.949 213.961 314.798 217.935 314.487 222.02C314.054 225.764 313.757 229.82 311.206 232.529C308.656 235.237 304.755 235.736 301.66 237.621C298.809 239.515 296.806 242.459 296.08 245.822C295.353 249.185 295.961 252.701 297.772 255.619C299.01 257.416 300.769 259.076 300.905 261.26C301.041 263.445 299.766 265.005 299.159 266.952C298.847 268.183 298.8 269.467 299.021 270.717C299.243 271.968 299.728 273.156 300.444 274.202C301.16 275.247 302.089 276.126 303.171 276.779C304.252 277.431 305.459 277.843 306.712 277.985C309.287 278.135 312.036 277.124 314.351 278.285C316.667 279.445 317.496 282.229 318.957 284.35C320.466 286.397 322.625 287.86 325.074 288.496C327.523 289.132 330.114 288.902 332.416 287.845C334.31 286.909 336.13 285.349 338.198 285.511C340.266 285.673 341.912 287.458 344.017 287.858C346.729 288.382 349.292 286.372 350.901 284.113C352.511 281.854 353.638 279.196 355.693 277.349C358.392 274.927 362.181 274.341 365.598 273.155C369.375 271.839 372.827 269.722 375.722 266.945C378.616 264.169 380.886 260.799 382.378 257.063C383.87 253.326 384.549 249.31 384.369 245.287C384.189 241.263 383.154 237.325 381.335 233.739" fill="#263238"/>
<path d="M377.621 214.019C379.097 214.181 380.459 214.896 381.438 216.021C382.417 217.146 382.941 218.601 382.908 220.097L379.367 300.813C379.218 310.349 365.4 315.703 355.272 315.466C345.045 315.229 344.723 310.174 344.587 301.1C344.376 285.948 344.401 280.257 344.389 280.344C344.376 280.431 331.475 278.16 328.838 261.16C327.525 252.698 327.971 238.844 328.701 227.524C329.37 217.327 336.13 204.833 346.172 205.931L377.621 214.019Z" fill="#FFBE9D"/>
<path d="M332.354 238.52C332.351 239.088 332.565 239.635 332.953 240.047C333.341 240.459 333.872 240.703 334.434 240.729C334.709 240.751 334.985 240.718 335.247 240.631C335.508 240.543 335.75 240.405 335.958 240.222C336.165 240.04 336.335 239.817 336.456 239.568C336.577 239.318 336.647 239.047 336.663 238.769C336.673 238.202 336.463 237.653 336.076 237.24C335.69 236.827 335.158 236.583 334.595 236.56C334.32 236.538 334.043 236.572 333.781 236.659C333.519 236.745 333.276 236.884 333.067 237.067C332.859 237.249 332.688 237.471 332.566 237.721C332.443 237.97 332.372 238.242 332.354 238.52Z" fill="#263238"/>
<path d="M331.611 234.738C331.883 235.025 333.518 233.802 335.845 233.814C338.173 233.827 339.869 235 340.129 234.713C340.389 234.426 339.981 234.077 339.238 233.527C338.232 232.821 337.034 232.446 335.808 232.454C334.599 232.444 333.419 232.825 332.441 233.54C331.722 234.089 331.475 234.613 331.611 234.738Z" fill="#263238"/>
<path d="M355.545 238.52C355.541 239.088 355.755 239.635 356.143 240.047C356.531 240.459 357.062 240.703 357.625 240.729C357.899 240.751 358.176 240.718 358.437 240.631C358.699 240.543 358.941 240.405 359.148 240.222C359.356 240.039 359.525 239.817 359.646 239.568C359.767 239.318 359.838 239.047 359.853 238.769C359.864 238.2 359.651 237.649 359.262 237.236C358.873 236.822 358.338 236.58 357.773 236.56C357.499 236.538 357.223 236.572 356.961 236.659C356.699 236.746 356.458 236.885 356.25 237.067C356.042 237.25 355.873 237.472 355.752 237.722C355.631 237.971 355.56 238.243 355.545 238.52Z" fill="#263238"/>
<path d="M354.48 235.225C354.752 235.512 356.386 234.289 358.714 234.301C361.042 234.314 362.738 235.55 362.998 235.2C363.258 234.851 362.85 234.564 362.107 234.014C361.101 233.308 359.903 232.933 358.677 232.941C357.469 232.937 356.291 233.317 355.309 234.027C354.591 234.589 354.343 235.1 354.48 235.225Z" fill="#263238"/>
<path d="M345.998 252.599C344.793 252.212 343.546 251.977 342.284 251.9C341.689 251.837 341.12 251.712 341.046 251.313C340.997 250.694 341.14 250.075 341.454 249.541C342.011 248.093 342.606 246.57 343.212 244.985C345.689 238.495 347.447 233.153 347.187 233.066C346.927 232.978 344.711 238.145 342.234 244.623C341.652 246.233 341.083 247.756 340.55 249.216C340.169 249.935 340.055 250.767 340.228 251.563C340.314 251.774 340.446 251.963 340.616 252.115C340.786 252.266 340.988 252.376 341.207 252.436C341.537 252.529 341.879 252.579 342.222 252.586C343.475 252.747 344.744 252.751 345.998 252.599Z" fill="#263238"/>
<path d="M344.326 280.344C352.264 280.487 360.086 278.409 366.923 274.34C366.923 274.34 361.202 286.322 344.326 284.687V280.344Z" fill="#EB996E"/>
<path d="M346.964 258.252C347.404 257.7 347.975 257.268 348.624 256.996C349.273 256.723 349.979 256.619 350.678 256.692C351.192 256.737 351.69 256.888 352.144 257.135C352.598 257.382 352.996 257.719 353.315 258.127C353.62 258.521 353.801 258.998 353.834 259.497C353.867 259.995 353.751 260.492 353.501 260.923C353.124 261.342 352.632 261.638 352.088 261.776C351.544 261.913 350.972 261.886 350.443 261.697C349.347 261.296 348.338 260.686 347.471 259.9C347.216 259.705 346.994 259.469 346.815 259.201C346.729 259.072 346.684 258.92 346.684 258.764C346.684 258.608 346.729 258.457 346.815 258.327" fill="#FF725E"/>
<path d="M352.857 254.234C352.474 254.234 352.461 256.73 350.294 258.565C348.128 260.399 345.441 260.075 345.428 260.437C345.428 260.587 346.023 260.924 347.162 260.961C348.641 260.991 350.081 260.486 351.223 259.538C352.326 258.638 353.037 257.339 353.204 255.919C353.291 254.858 353.006 254.221 352.857 254.234Z" fill="#263238"/>
<path d="M353.439 231.118C353.662 231.755 355.99 231.455 358.714 231.792C361.438 232.129 363.667 232.891 364.013 232.316C364.187 232.042 363.803 231.443 362.911 230.819C361.723 230.065 360.38 229.591 358.985 229.433C357.589 229.276 356.176 229.438 354.851 229.908C353.848 230.307 353.34 230.819 353.439 231.118Z" fill="#263238"/>
<path d="M332.478 227.948C332.886 228.484 334.496 227.948 336.415 227.948C338.334 227.948 339.981 228.31 340.353 227.761C340.526 227.486 340.266 226.949 339.548 226.45C338.593 225.839 337.479 225.531 336.35 225.564C335.22 225.598 334.126 225.971 333.208 226.637C332.527 227.137 332.305 227.686 332.478 227.948Z" fill="#263238"/>
<path d="M366.478 208.49C368.398 207.135 370.584 206.21 372.889 205.78C375.194 205.349 377.563 205.422 379.838 205.994C384.332 207.242 388.059 211.386 388.22 215.979C388.319 218.974 386.982 222.219 388.356 224.878C389.73 227.536 392.702 228.497 394.906 230.369C396.595 231.858 397.741 233.873 398.163 236.094C398.585 238.315 398.258 240.614 397.234 242.626C395.389 246.033 391.526 248.529 391.204 252.374C390.894 255.993 393.915 259.051 394.658 262.608C395.463 266.527 393.309 270.584 390.226 273.192C387.143 275.801 383.23 277.236 379.417 278.609C376.445 279.695 373.226 280.793 370.168 280.082C368.361 279.593 366.739 278.576 365.505 277.159C364.271 275.742 363.481 273.988 363.234 272.119C363.05 270.255 363.268 268.373 363.873 266.603C364.478 264.832 365.455 263.214 366.738 261.859C368.905 259.45 371.951 257.416 372.471 254.233C373.275 249.241 367.431 245.234 367.79 240.242C367.976 237.671 369.784 235.537 371.282 233.415C372.78 231.293 374.093 228.635 373.164 226.226C371.926 223.08 367.877 222.257 365.401 219.985C364.38 219.017 363.646 217.782 363.281 216.418C362.916 215.053 362.934 213.614 363.333 212.259C363.784 210.906 364.591 209.703 365.668 208.777C366.746 207.851 368.053 207.239 369.45 207.005" fill="#263238"/>
<path d="M368.298 204.658C368.306 206.367 367.94 208.057 367.226 209.608C366.511 211.158 365.467 212.531 364.166 213.627C362.865 214.724 361.341 215.518 359.701 215.952C358.061 216.387 356.346 216.451 354.678 216.141C352.103 215.666 349.28 214.356 347.051 215.741C344.822 217.127 344.575 220.734 342.532 222.568C339.56 225.177 334.843 222.731 331.067 223.817C328.157 224.69 326.337 227.486 324.393 229.857C322.449 232.229 319.564 234.463 316.642 233.602C316.73 230.953 317.12 228.323 317.806 225.764C318.504 223.19 320.06 220.937 322.214 219.386C323.488 218.717 324.728 217.984 325.928 217.189C328.405 215.23 328.912 211.797 330.398 209.051C331.381 207.284 332.767 205.778 334.442 204.658C336.117 203.538 338.033 202.836 340.031 202.611C343.349 202.274 346.766 203.273 349.936 202.449C352.326 201.85 354.418 200.29 356.833 199.815C361.55 198.917 365.933 202.312 369.35 205.719" fill="#263238"/>
<path d="M399.091 245.284C399.401 244.681 399.534 244.001 399.474 243.324C399.322 242.416 398.923 241.568 398.322 240.875C397.721 240.181 396.942 239.668 396.069 239.393C394.859 238.961 393.617 238.623 392.355 238.382C390.849 238.106 389.418 237.511 388.158 236.635C387.485 236.086 386.94 235.394 386.563 234.609C386.187 233.824 385.987 232.964 385.978 232.091C385.96 230.307 386.047 228.523 386.238 226.75C386.287 225.873 386.242 224.995 386.102 224.129C385.94 223.319 385.602 222.556 385.112 221.894C384.003 220.744 382.596 219.931 381.051 219.548C379.601 219.13 378.212 218.526 376.915 217.751C375.787 217.069 374.761 216.229 373.869 215.254C372.566 213.858 371.556 212.211 370.898 210.412C370.71 209.931 370.565 209.434 370.464 208.926C370.39 208.577 370.365 208.402 370.39 208.39C370.415 208.377 370.613 209.101 371.121 210.324C372.033 212.456 373.42 214.348 375.174 215.852C376.928 217.356 379.003 218.433 381.236 218.999C382.896 219.394 384.408 220.26 385.595 221.495C386.154 222.231 386.543 223.084 386.734 223.991C386.882 224.907 386.932 225.836 386.882 226.762C386.697 228.516 386.606 230.278 386.61 232.042C386.608 232.828 386.78 233.606 387.112 234.318C387.443 235.03 387.927 235.659 388.529 236.16C389.716 236.992 391.061 237.565 392.479 237.845C393.744 238.116 394.986 238.487 396.193 238.956C397.232 239.356 398.141 240.039 398.818 240.928C399.31 241.612 399.605 242.42 399.672 243.262C399.705 243.796 399.599 244.33 399.363 244.81C399.251 245.159 399.103 245.297 399.091 245.284Z" fill="#455A64"/>
<path d="M299.802 255.894L299.518 255.756C299.262 255.595 299.046 255.377 298.886 255.12C298.652 254.578 298.561 253.983 298.622 253.395C298.683 252.807 298.893 252.245 299.233 251.762C299.653 251.015 300.282 250.407 301.041 250.015C301.919 249.575 302.825 249.191 303.752 248.867C304.793 248.517 305.756 247.965 306.588 247.244C307.431 246.356 307.995 245.235 308.209 244.024C308.482 242.776 308.569 241.353 308.804 239.905C308.98 238.352 309.557 236.872 310.475 235.612C312.432 233.016 315.651 231.63 318.053 229.184C319.252 227.897 320.152 226.358 320.69 224.678C321.262 222.905 321.677 221.084 321.928 219.237C322.448 215.492 322.981 211.324 325.469 207.904C326.683 206.185 328.504 205.001 330.558 204.596C332.509 204.316 334.492 204.362 336.427 204.734C338.233 205.086 340.077 205.196 341.912 205.058C343.638 204.857 345.232 204.027 346.394 202.724C348.697 200.228 350.009 196.858 352.845 195.136C354.108 194.359 355.516 193.853 356.982 193.649C358.447 193.445 359.939 193.547 361.363 193.95C363.724 194.627 365.73 196.202 366.96 198.343C367.889 199.934 368.392 201.74 368.421 203.585C368.454 204.74 368.274 205.892 367.888 206.98C367.76 207.364 367.589 207.732 367.381 208.079C367.381 208.079 367.529 207.692 367.765 206.943C368.088 205.859 368.226 204.728 368.173 203.598C368.102 201.807 367.583 200.064 366.663 198.53C365.452 196.499 363.509 195.018 361.24 194.399C359.875 194.036 358.451 193.96 357.056 194.174C355.661 194.389 354.325 194.89 353.13 195.647C351.833 196.546 350.726 197.696 349.873 199.03C348.95 200.481 347.933 201.87 346.827 203.186C346.205 203.869 345.478 204.447 344.673 204.896C343.832 205.329 342.923 205.612 341.986 205.732C340.099 205.878 338.201 205.773 336.34 205.42C334.475 205.058 332.563 205.007 330.682 205.27C328.788 205.656 327.11 206.754 325.989 208.341C324.861 209.949 324.042 211.757 323.575 213.67C323.129 215.555 322.785 217.463 322.547 219.386C322.302 221.268 321.888 223.122 321.309 224.928C320.741 226.693 319.784 228.306 318.511 229.646C315.973 232.142 312.791 233.54 310.933 235.999C310.063 237.182 309.509 238.57 309.324 240.03C309.089 241.453 308.99 242.851 308.68 244.174C308.446 245.471 307.824 246.664 306.897 247.594C306.021 248.341 305.007 248.905 303.913 249.254C302.992 249.559 302.091 249.922 301.214 250.34C300.499 250.697 299.898 251.251 299.481 251.937C299.152 252.387 298.94 252.913 298.862 253.466C298.784 254.019 298.844 254.583 299.035 255.107C299.239 255.416 299.499 255.683 299.802 255.894Z" fill="#455A64"/>
<path d="M258.436 372.941L288.338 370.183C288.338 370.183 306.737 321.319 329.42 309.475L344.116 335.348L312.655 394.921H251.243L258.436 372.941Z" fill="#FF725E"/>
<path opacity="0.3" d="M258.436 372.941L288.338 370.183C288.338 370.183 306.737 321.319 329.42 309.475L344.116 335.348L312.655 394.921H251.243L258.436 372.941Z" fill="black"/>
<path d="M270.248 386.671C271.725 383.307 273.604 380.138 275.844 377.235C274.347 380.588 272.469 383.754 270.248 386.671Z" fill="#FAFAFA"/>
<path d="M291.433 386.084C288.838 383.523 286.552 380.662 284.624 377.56C286.006 378.751 287.233 380.114 288.276 381.616C289.496 382.977 290.556 384.477 291.433 386.084Z" fill="#FAFAFA"/>
<path d="M295.11 374.888C294.681 372.268 294.681 369.595 295.11 366.975C295.539 369.595 295.539 372.268 295.11 374.888Z" fill="#FAFAFA"/>
<path d="M284.586 392.349C283.542 392.056 282.569 391.55 281.726 390.864C280.24 389.878 279.126 388.967 279.249 388.817C280.29 389.125 281.261 389.634 282.11 390.315C283.521 391.288 284.685 392.2 284.586 392.349Z" fill="#FAFAFA"/>
<path d="M301.759 347.443C301.269 349.327 300.575 351.152 299.691 352.884C299.001 354.704 298.112 356.442 297.042 358.064C297.518 356.177 298.207 354.351 299.097 352.622C299.795 350.803 300.687 349.066 301.759 347.443Z" fill="#FAFAFA"/>
<path d="M313.881 327.647C313.98 327.785 312.915 328.783 311.491 329.882C310.681 330.628 309.735 331.209 308.705 331.592C308.606 331.442 309.671 330.443 311.095 329.357C311.901 328.606 312.848 328.024 313.881 327.647Z" fill="#FAFAFA"/>
<path d="M358.603 391.002L374.03 328.21C375.32 322.941 378.553 318.366 383.07 315.415C387.587 312.463 393.05 311.357 398.347 312.321C403.789 313.314 408.632 316.409 411.842 320.949C415.052 325.488 416.377 331.112 415.533 336.622L406.098 397.992C404.972 404.273 401.931 410.044 397.4 414.502C392.869 418.96 387.072 421.884 380.815 422.867L368.558 424.789L358.603 391.002Z" fill="#FF725E"/>
<path d="M407.212 308.264C405.603 306.937 403.721 305.986 401.703 305.481C399.52 304.969 397.249 304.969 395.066 305.481C392.408 306.158 389.939 307.438 387.848 309.225C383.328 313.045 380.877 317.962 379.181 321.482C378.351 323.242 377.72 324.689 377.274 325.688C377.069 326.222 376.816 326.735 376.519 327.223C376.64 326.667 376.814 326.123 377.039 325.601C377.422 324.565 377.98 323.104 378.76 321.282C379.674 319.168 380.733 317.12 381.929 315.154C383.415 312.737 385.266 310.568 387.414 308.726C389.573 306.856 392.14 305.526 394.905 304.844C397.174 304.324 399.534 304.354 401.789 304.932C403.304 305.324 404.726 306.016 405.974 306.966C406.307 307.227 406.617 307.515 406.903 307.827C407.126 308.139 407.225 308.252 407.212 308.264Z" fill="#263238"/>
<path d="M319.836 322.393C319.713 322.604 319.568 322.801 319.403 322.979L318.09 324.577C316.939 325.962 315.317 327.984 313.46 330.593C308.523 337.342 304.944 345 302.923 353.134C300.781 362.707 300.669 371.668 300.31 378.096C300.149 381.316 300.001 383.925 299.865 385.722C299.79 386.571 299.728 387.257 299.679 387.794C299.664 388.037 299.631 388.279 299.58 388.518C299.545 388.278 299.545 388.034 299.58 387.794C299.58 387.245 299.58 386.546 299.642 385.71C299.642 383.825 299.778 381.241 299.877 378.084C300.125 371.668 300.149 362.669 302.353 352.997C304.377 344.783 308.047 337.073 313.138 330.343C315.057 327.747 316.741 325.75 317.942 324.415C318.536 323.741 319.031 323.242 319.353 322.905C319.499 322.72 319.66 322.548 319.836 322.393Z" fill="#263238"/>
<path d="M418.665 322.255C416.969 311.022 410.828 308.339 404.451 304.844C402.371 303.696 392.33 301.1 384.368 299.14C383.601 294.285 382.239 285.573 381.892 283.739C381.471 281.155 341.33 287.608 340.823 288.581C340.488 289.218 339.584 299.303 338.978 306.055L329.37 309.437L316.877 325.513L310.352 334.849C306.507 340.234 303.759 346.334 302.267 352.797C300.865 359.954 300.262 367.247 300.471 374.539L298.527 415.727L382.573 439.665L389.012 397.904L410.679 368.173C412.524 356.154 420.745 336.06 418.665 322.255Z" fill="#FF725E"/>
<path d="M346.989 307.316C346.695 306.388 346.508 305.429 346.431 304.458C346.171 302.685 345.85 300.227 345.54 297.506C345.391 296.158 345.255 294.872 345.119 293.661C344.991 292.609 344.917 291.551 344.896 290.491C344.885 289.743 345.096 289.008 345.503 288.382C345.825 287.958 346.097 287.845 346.122 287.87C346.147 287.895 345.936 288.095 345.713 288.519C345.433 289.136 345.309 289.814 345.354 290.491C345.354 291.365 345.577 292.413 345.713 293.599C345.85 294.785 346.011 296.095 346.184 297.431C346.493 300.152 346.741 302.623 346.89 304.408C347.033 305.37 347.066 306.346 346.989 307.316Z" fill="#263238"/>
<path d="M357.699 304.77C357.282 303.942 356.982 303.06 356.808 302.149C355.688 297.827 355.269 293.351 355.569 288.894C355.578 287.969 355.711 287.049 355.966 286.16C356.164 286.16 355.805 290.367 356.288 295.509C356.77 300.651 357.897 304.72 357.699 304.77Z" fill="#263238"/>
<path d="M377.621 301.799C377.874 298.696 377.795 295.574 377.386 292.488C376.753 289.438 375.782 286.469 374.488 283.639C375.111 284.334 375.609 285.132 375.962 285.998C377.935 290.057 378.717 294.599 378.215 299.091C378.157 300.019 377.957 300.933 377.621 301.799Z" fill="#263238"/>
<path d="M320.666 338.568C322.579 334.892 325.066 331.55 328.033 328.671C325.738 332.089 323.28 335.392 320.666 338.568Z" fill="#FAFAFA"/>
<path d="M339.523 323.017C337.121 320.584 335.04 317.849 333.332 314.879C334.592 316.03 335.71 317.329 336.663 318.748C337.79 320.045 338.751 321.479 339.523 323.017Z" fill="#FAFAFA"/>
<path d="M359.284 313.307C358.075 314.753 356.754 316.102 355.334 317.338C354.066 318.734 352.696 320.031 351.236 321.22C352.232 319.597 353.463 318.133 354.888 316.876C356.164 315.468 357.647 314.264 359.284 313.307Z" fill="#FAFAFA"/>
<path d="M353.737 301.424C352.584 300.815 351.542 300.013 350.654 299.053C349.619 298.247 348.72 297.278 347.992 296.182C349.143 296.806 350.188 297.611 351.087 298.566C352.119 299.367 353.014 300.332 353.737 301.424Z" fill="#FAFAFA"/>
<path d="M371.058 292.114C369.737 292.737 368.331 293.158 366.886 293.362C365.49 293.769 364.043 293.97 362.589 293.961C363.908 293.343 365.31 292.923 366.75 292.713C368.15 292.306 369.601 292.104 371.058 292.114Z" fill="#FAFAFA"/>
<path d="M374.525 319.759C374.128 318.343 373.944 316.875 373.98 315.403C373.802 313.946 373.836 312.47 374.079 311.022C374.477 312.439 374.66 313.907 374.624 315.378C374.802 316.836 374.768 318.312 374.525 319.759Z" fill="#FAFAFA"/>
<path d="M368.211 333.002C367.294 331.429 366.562 329.754 366.032 328.01C365.313 326.316 364.79 324.544 364.472 322.73C366.1 326.015 367.347 329.478 368.186 333.052L368.211 333.002Z" fill="#FAFAFA"/>
<path d="M351.05 342.425C350.064 340.761 349.266 338.99 348.673 337.146C347.87 335.378 347.272 333.523 346.89 331.617C347.868 333.29 348.665 335.064 349.267 336.909C350.06 338.676 350.658 340.526 351.05 342.425Z" fill="#FAFAFA"/>
<path d="M334.905 353.047C333.761 349.621 333.037 346.066 332.75 342.463C333.417 344.144 333.882 345.9 334.137 347.692C334.601 349.441 334.858 351.238 334.905 353.047Z" fill="#FAFAFA"/>
<path d="M315.713 353.471C313.805 350.49 312.259 347.288 311.107 343.935C313.016 346.917 314.562 350.118 315.713 353.471Z" fill="#FAFAFA"/>
<path d="M315.305 365.877C313.733 367.004 312.048 367.962 310.278 368.735C308.593 369.695 306.808 370.461 304.954 371.019C306.523 369.878 308.213 368.915 309.993 368.149C311.674 367.194 313.456 366.432 315.305 365.877Z" fill="#FAFAFA"/>
<path d="M315.54 385.497C314.699 384.093 314.108 382.551 313.794 380.942C313.273 379.396 313.026 377.769 313.064 376.136C313.658 377.638 314.11 379.192 314.413 380.779C314.934 382.313 315.311 383.893 315.54 385.497Z" fill="#FAFAFA"/>
<path d="M311.565 399.276C310.097 398.34 308.743 397.234 307.529 395.981C306.175 394.893 304.964 393.634 303.926 392.237C305.394 393.174 306.748 394.28 307.962 395.532C309.316 396.621 310.527 397.879 311.565 399.276Z" fill="#FAFAFA"/>
<path d="M336.849 389.866C336.849 390.053 334.05 390.877 330.732 392.362C327.414 393.847 324.888 395.37 324.777 395.208C326.467 393.742 328.393 392.577 330.472 391.763C332.473 390.764 334.63 390.122 336.849 389.866Z" fill="#FAFAFA"/>
<path d="M329.457 383.038C328.659 381.702 328.047 380.261 327.637 378.757C327.018 377.33 326.601 375.821 326.398 374.277C327.193 375.609 327.801 377.045 328.206 378.545C328.833 379.975 329.254 381.488 329.457 383.038Z" fill="#FAFAFA"/>
<path d="M344.451 366.164C343.517 368.277 342.385 370.296 341.071 372.193C339.938 374.225 338.62 376.148 337.134 377.934C339.209 373.812 341.659 369.893 344.451 366.227V366.164Z" fill="#FAFAFA"/>
<path d="M360.571 367.774C358.94 366.089 357.552 364.182 356.448 362.108C355.159 360.148 354.142 358.018 353.427 355.78C353.6 355.705 355.037 358.476 357.005 361.783C358.974 365.091 360.72 367.674 360.571 367.774Z" fill="#FAFAFA"/>
<path d="M370.192 351.723C368.69 352.316 367.087 352.605 365.474 352.572C363.876 352.761 362.257 352.633 360.708 352.198C362.279 351.987 363.864 351.895 365.45 351.923C367.024 351.742 368.608 351.675 370.192 351.723Z" fill="#FAFAFA"/>
<path d="M393.135 333.489C389.205 335.871 385.059 337.868 380.753 339.455C384.689 337.086 388.834 335.089 393.135 333.489Z" fill="#FAFAFA"/>
<path d="M394.658 321.881C395.92 318.371 397.582 315.021 399.61 311.896C399.087 313.687 398.355 315.409 397.431 317.026C396.693 318.745 395.762 320.374 394.658 321.881Z" fill="#FAFAFA"/>
<path d="M409.219 330.993C408.457 329.148 407.828 327.25 407.337 325.314C406.647 323.443 406.092 321.524 405.677 319.572C407.528 323.134 408.728 327.002 409.219 330.993Z" fill="#FAFAFA"/>
<path d="M411.509 343.074C409.807 344.011 407.974 344.684 406.073 345.071C404.224 345.664 402.294 345.963 400.353 345.957C402.17 345.326 404.027 344.821 405.912 344.447C407.745 343.862 409.615 343.403 411.509 343.074Z" fill="#FAFAFA"/>
<path d="M386.548 357.827C386.362 357.827 386.895 354.757 387.043 350.975C387.192 347.193 386.944 344.123 387.13 344.098C387.702 346.35 387.89 348.684 387.687 351C387.699 353.324 387.313 355.634 386.548 357.827Z" fill="#FAFAFA"/>
<path d="M381.571 373.016C378.241 370.356 375.499 367.023 373.523 363.231C373.684 363.131 375.318 365.44 377.547 368.136C378.973 369.69 380.316 371.319 381.571 373.016Z" fill="#FAFAFA"/>
<path d="M406.594 369.809C404.973 370.837 403.24 371.674 401.431 372.305C399.702 373.144 397.888 373.788 396.02 374.227C399.371 372.354 402.917 370.86 406.594 369.771V369.809Z" fill="#FAFAFA"/>
<path d="M397.629 398.391C397.254 393.82 397.299 389.224 397.765 384.661C398.158 389.232 398.112 393.829 397.629 398.391Z" fill="#FAFAFA"/>
<path d="M378.426 396.743C378.738 391.967 379.9 387.287 381.855 382.926C382.029 382.989 381.088 386.022 380.147 389.828C379.206 393.635 378.611 396.78 378.426 396.743Z" fill="#FAFAFA"/>
<path d="M379.305 404.244C379.305 404.431 376.234 404.731 372.47 405.367C368.706 406.004 365.685 406.703 365.636 406.516C367.784 405.607 370.046 405.002 372.359 404.718C374.64 404.23 376.979 404.07 379.305 404.244Z" fill="#FAFAFA"/>
<path d="M358.058 399.439C359.134 397.87 360.38 396.426 361.772 395.133C362.999 393.695 364.387 392.405 365.908 391.289C364.831 392.858 363.586 394.303 362.193 395.595C360.963 397.03 359.576 398.319 358.058 399.439Z" fill="#FAFAFA"/>
<path d="M344.302 412.881C343.646 411.29 343.088 409.661 342.63 408.001C341.958 406.414 341.38 404.789 340.897 403.133C342.861 406.025 344.035 409.387 344.302 412.881Z" fill="#FAFAFA"/>
<path d="M366.477 420.645C362.255 419.234 358.178 417.411 354.306 415.203C356.442 415.81 358.515 416.621 360.497 417.624C362.579 418.443 364.581 419.454 366.477 420.645Z" fill="#FAFAFA"/>
<path d="M327.798 418.385C327.971 416.815 328.363 415.277 328.962 413.817C329.353 412.291 329.949 410.826 330.732 409.461C330.557 411.031 330.165 412.569 329.568 414.03C329.168 415.553 328.573 417.017 327.798 418.385Z" fill="#FAFAFA"/>
<path d="M353.304 422.742C353.304 422.929 349.75 422.355 345.367 422.13C340.984 421.905 337.431 422.13 337.418 421.88C340.048 421.365 342.737 421.231 345.404 421.481C348.084 421.516 350.744 421.94 353.304 422.742Z" fill="#FAFAFA"/>
<path d="M358.603 385.935C358.579 385.769 358.579 385.601 358.603 385.435C358.6 384.957 358.671 384.481 358.813 384.025C359.006 383.255 359.484 382.589 360.15 382.165C361.063 381.633 362.138 381.455 363.171 381.666L362.924 381.816C364.273 377.023 366.44 370.034 368.607 362.195C370.637 354.857 372.012 348.104 372.965 343.199C373.436 340.84 373.807 338.881 374.104 337.395C374.216 336.682 374.377 335.977 374.587 335.286C374.572 336.011 374.493 336.734 374.352 337.445C374.154 338.831 373.832 340.828 373.411 343.287C372.338 349.715 370.941 356.085 369.226 362.37C367.059 370.221 364.818 377.185 363.332 381.941L363.27 382.128H363.085C362.15 381.913 361.169 382.046 360.324 382.502C359.709 382.872 359.248 383.452 359.024 384.137C358.615 385.236 358.689 385.947 358.603 385.935Z" fill="#263238"/>
<path d="M386.362 403.295C386.263 403.295 385.495 401.648 383.886 399.127C379.759 392.545 373.94 387.213 367.047 383.7C364.41 382.365 362.664 381.753 362.701 381.641C363.124 381.708 363.539 381.821 363.939 381.978C365.059 382.344 366.155 382.781 367.22 383.288C374.339 386.624 380.282 392.066 384.257 398.89C384.855 399.911 385.389 400.97 385.854 402.06C386.089 402.441 386.26 402.859 386.362 403.295Z" fill="#263238"/>
<g opacity="0.2">
<path d="M363.444 380.73C367.89 380.842 372.292 381.646 376.494 383.114C380.939 384.786 385.05 388.006 386.684 392.499C386.949 393.006 387.068 393.578 387.026 394.15C386.985 394.721 386.785 395.27 386.449 395.732C386.132 396.007 385.745 396.188 385.333 396.257C384.92 396.325 384.496 396.277 384.109 396.119C383.334 395.792 382.634 395.308 382.053 394.696C379.329 392.2 376.494 389.903 373.683 387.457C370.873 385.011 366.762 382.465 363.097 381.878" fill="black"/>
</g>
<path d="M354.517 372.767C354.138 373.069 353.722 373.32 353.279 373.515C352.06 374.117 350.787 374.602 349.478 374.963C345.121 376.216 340.512 376.272 336.127 375.124C331.743 373.976 327.742 371.667 324.541 368.436C323.575 367.473 322.696 366.424 321.916 365.303C321.607 364.923 321.349 364.503 321.149 364.055C321.248 363.98 322.387 365.802 324.863 368.149C328.079 371.211 332.01 373.404 336.291 374.526C340.573 375.647 345.066 375.66 349.354 374.564C352.585 373.69 354.455 372.642 354.517 372.767Z" fill="#263238"/>
<g opacity="0.2">
<path d="M321.755 364.979C323.848 369.547 326.287 374.153 330.249 377.223C332.44 379.131 335.176 380.285 338.062 380.518C342.197 380.593 345.751 377.747 348.908 375.052C338.681 376.674 327.166 371.994 321.755 364.979Z" fill="black"/>
</g>
<path d="M367.542 303.821C367.344 303.821 367.542 299.528 367.072 294.298C366.601 289.068 365.549 284.912 365.734 284.862C366.143 285.712 366.43 286.615 366.589 287.546C367.123 289.745 367.496 291.981 367.703 294.236C367.924 296.492 367.982 298.761 367.876 301.025C367.887 301.968 367.775 302.908 367.542 303.821Z" fill="#263238"/>
<path d="M220.672 470.844C220.672 470.844 207.214 473.777 195.204 471.955C183.936 470.257 158.715 472.017 158.728 486.932C158.728 503.619 192.368 499.5 205.48 496.854C218.592 494.208 231.667 491.862 231.667 491.862L220.672 470.844Z" fill="#FF725E"/>
<path d="M190.462 492.223C189.722 490.351 189.178 488.406 188.84 486.42C188.301 484.476 187.969 482.48 187.849 480.466C188.573 482.34 189.1 484.285 189.422 486.27C189.977 488.211 190.326 490.207 190.462 492.223Z" fill="#263238"/>
<path d="M195.055 492.449C194.082 488.518 193.534 484.492 193.421 480.442C194.011 482.379 194.393 484.375 194.56 486.395C194.934 488.39 195.1 490.419 195.055 492.449Z" fill="#263238"/>
<path d="M199.488 490.701C198.969 489.01 198.653 487.263 198.547 485.496C198.225 483.756 198.121 481.983 198.237 480.217C199.069 483.648 199.485 487.169 199.475 490.701H199.488Z" fill="#263238"/>
<path d="M206.446 489.016C205.585 487.656 205 486.138 204.725 484.548C204.242 483.005 204.073 481.379 204.23 479.768C204.703 481.28 205.075 482.823 205.344 484.386C205.82 485.901 206.188 487.448 206.446 489.016Z" fill="#263238"/>
<path d="M207.994 482.851C208.57 482.717 209.163 482.675 209.752 482.726C211.364 482.782 212.956 483.098 214.469 483.662C214.992 483.85 215.485 484.115 215.93 484.449C216.192 484.642 216.409 484.89 216.565 485.177C216.721 485.464 216.813 485.782 216.834 486.109C216.806 486.468 216.701 486.818 216.527 487.133C216.352 487.448 216.112 487.721 215.822 487.934C215.533 488.146 215.201 488.293 214.85 488.363C214.499 488.434 214.136 488.427 213.788 488.343C212.366 487.95 211.126 487.067 210.284 485.846C208.886 484.029 208.086 481.817 207.995 479.519C207.904 477.221 208.527 474.952 209.777 473.028C210.03 472.719 210.378 472.503 210.767 472.417C210.97 472.391 211.176 472.409 211.37 472.472C211.565 472.534 211.744 472.639 211.894 472.779C212.371 473.273 212.668 473.915 212.736 474.601C212.889 475.729 212.83 476.877 212.562 477.983C212.192 479.588 211.406 481.066 210.284 482.264C209.988 482.592 209.66 482.889 209.306 483.151C209.188 483.251 209.054 483.331 208.91 483.388C208.91 483.388 209.38 482.963 210.148 482.14C211.151 480.92 211.844 479.472 212.166 477.921C212.39 476.866 212.419 475.779 212.253 474.713C212.19 474.161 211.951 473.644 211.572 473.241C211.476 473.16 211.363 473.101 211.242 473.068C211.121 473.035 210.994 473.029 210.87 473.05C210.747 473.072 210.629 473.12 210.526 473.192C210.423 473.263 210.336 473.357 210.272 473.465C209.141 475.288 208.589 477.415 208.689 479.563C208.788 481.71 209.535 483.776 210.829 485.485C211.568 486.602 212.672 487.423 213.949 487.806C214.214 487.876 214.49 487.888 214.759 487.842C215.029 487.796 215.285 487.693 215.512 487.54C215.739 487.386 215.932 487.186 216.076 486.952C216.221 486.718 216.314 486.456 216.351 486.183C216.331 485.937 216.259 485.699 216.139 485.483C216.019 485.268 215.855 485.081 215.658 484.935C215.266 484.619 214.827 484.367 214.358 484.186C212.895 483.601 211.356 483.231 209.789 483.088C208.563 482.876 207.994 482.901 207.994 482.851Z" fill="#263238"/>
<path d="M230.342 489.652L230.008 489.765L228.993 490.014L225.092 490.913C221.7 491.662 216.772 492.723 210.656 493.909C204.539 495.094 197.234 496.405 189.037 497.565C184.746 498.276 180.39 498.498 176.049 498.227C173.739 498.07 171.456 497.63 169.252 496.916C168.119 496.529 167.025 496.036 165.983 495.444C164.894 494.856 163.924 494.069 163.123 493.122C162.675 492.706 162.283 492.232 161.959 491.712C161.327 490.617 160.939 489.397 160.822 488.137C160.704 486.876 160.86 485.604 161.278 484.41C162.088 482.105 163.595 480.115 165.587 478.719C167.462 477.388 169.529 476.356 171.716 475.661C172.793 475.349 173.833 474.975 174.898 474.737C175.963 474.5 177.015 474.238 178.067 474.088C186.499 472.753 194.163 473.427 200.552 473.427C203.747 473.489 206.632 473.427 209.157 473.252C211.317 473.095 213.466 472.82 215.596 472.428L217.924 471.929L219.595 471.455L220.623 471.168C220.738 471.127 220.859 471.101 220.982 471.093C220.982 471.093 220.87 471.155 220.647 471.23L219.632 471.58L217.973 472.116L215.658 472.678C213.518 473.113 211.356 473.426 209.182 473.614C206.644 473.801 203.747 473.926 200.515 473.889C194.126 473.951 186.462 473.315 178.142 474.675C177.102 474.825 176.074 475.112 175.022 475.337C173.969 475.561 172.954 475.948 171.889 476.248C169.763 476.926 167.754 477.932 165.933 479.231C164.052 480.551 162.628 482.432 161.86 484.61C161.476 485.714 161.333 486.889 161.44 488.054C161.547 489.219 161.901 490.348 162.479 491.362C162.775 491.823 163.128 492.242 163.531 492.61C164.288 493.474 165.189 494.196 166.194 494.745C167.195 495.317 168.248 495.794 169.338 496.168C171.496 496.856 173.729 497.275 175.987 497.416C180.285 497.689 184.599 497.483 188.852 496.804C197.023 495.718 204.341 494.408 210.457 493.284C216.574 492.161 221.514 491.163 224.931 490.489L228.856 489.715L229.872 489.528C230.036 489.535 230.196 489.577 230.342 489.652Z" fill="#263238"/>
<path d="M181.138 497.753C180.936 496.607 180.824 495.447 180.804 494.283C180.656 492.149 180.408 489.191 179.975 485.958C179.541 482.725 179.021 479.805 178.6 477.695C178.311 476.57 178.117 475.422 178.018 474.263C178.479 475.334 178.823 476.451 179.046 477.596C179.722 480.323 180.247 483.085 180.618 485.871C180.983 488.653 181.198 491.453 181.262 494.258C181.34 495.424 181.299 496.595 181.138 497.753Z" fill="#263238"/>
<path opacity="0.4" d="M216.525 471.568L225.056 493.098L231.667 491.862L219.001 470.844L216.525 471.568Z" fill="black"/>
<path d="M327.661 412.557C326.287 413.006 238.168 388.119 202.534 378.022C197.907 376.708 193.056 376.403 188.303 377.129C183.55 377.854 179.006 379.592 174.972 382.228L174.539 382.502C168.689 386.316 164.15 391.857 161.541 398.369C158.933 404.881 158.383 412.046 159.966 418.885C160.982 423.289 162.857 427.446 165.479 431.114C168.102 434.782 171.421 437.888 175.245 440.253C198.77 454.768 248.481 485.297 250.004 484.698C251.998 483.924 314.104 482.302 314.104 482.302L239.381 428.121L274.928 451.286L327.661 412.594V412.557Z" fill="#263238"/>
<path d="M254.09 385.523L272.824 375.75L291.198 387.357L359.965 389.629L369.87 423.328L270.322 400.063C270.322 400.063 252.208 401.686 250.846 397.567C249.484 393.448 254.09 385.523 254.09 385.523Z" fill="#FFBE9D"/>
<path d="M310.439 439.616L301.177 470.294L302.329 479.643C310.484 487.926 321.355 492.928 332.906 493.711C344.457 494.494 355.896 491.006 365.078 483.899C370.77 479.493 375.377 473.822 378.538 467.327C381.699 460.832 383.33 453.69 383.304 446.455L383.168 414.429L310.439 439.616Z" fill="#263238"/>
<path d="M255.292 439.816C255.193 439.953 244.445 432.052 231.296 422.167C218.147 412.282 207.561 404.145 207.672 404.007C207.784 403.87 218.518 411.758 231.68 421.643C244.842 431.528 255.403 439.666 255.292 439.816Z" fill="#455A64"/>
<path d="M271.56 381.865C268.581 383.169 265.521 384.274 262.398 385.173C259.337 386.266 256.211 387.162 253.038 387.856C256.016 386.55 259.076 385.445 262.2 384.549C265.26 383.454 268.387 382.557 271.56 381.865Z" fill="#EB996E"/>
<path d="M272.96 387.619C271.915 387.919 270.846 388.124 269.765 388.231C267.797 388.555 265.085 389.042 262.114 389.729C259.142 390.415 256.492 391.176 254.573 391.751C253.554 392.122 252.506 392.41 251.441 392.612C252.384 392.081 253.386 391.663 254.425 391.364C256.894 390.48 259.412 389.738 261.965 389.142C264.517 388.553 267.101 388.111 269.703 387.819C270.779 387.637 271.87 387.57 272.96 387.619Z" fill="#EB996E"/>
<path d="M271.387 392.912C268.002 393.927 264.558 394.727 261.073 395.308C257.629 396.107 254.139 396.695 250.623 397.068C254.014 396.059 257.462 395.258 260.949 394.671C264.39 393.874 267.876 393.286 271.387 392.912Z" fill="#EB996E"/>
<path d="M247.095 340.241L264.367 397.555C264.465 397.874 264.655 398.156 264.913 398.365C265.171 398.574 265.486 398.7 265.816 398.728L312.865 402.285C313.283 402.314 313.673 402.501 313.958 402.809C314.244 403.118 314.402 403.524 314.401 403.945V406.903C314.401 407.124 314.357 407.343 314.272 407.547C314.187 407.751 314.062 407.936 313.905 408.09C313.748 408.245 313.562 408.366 313.358 408.448C313.154 408.529 312.936 408.568 312.717 408.563L183.949 406.067C183.62 406.061 183.3 405.955 183.03 405.764C182.761 405.573 182.555 405.304 182.438 404.993L159.805 345.221C159.71 344.976 159.675 344.711 159.702 344.449C159.729 344.187 159.818 343.935 159.961 343.714C160.103 343.493 160.296 343.31 160.523 343.179C160.75 343.048 161.005 342.974 161.266 342.962L245.349 339.006C245.738 338.972 246.126 339.077 246.445 339.303C246.764 339.529 246.994 339.861 247.095 340.241Z" fill="#455A64"/>
<path d="M210.817 364.928C210.186 365.166 209.623 365.556 209.178 366.066C208.733 366.575 208.42 367.188 208.266 367.849C208.209 368.54 208.334 369.233 208.627 369.86C208.921 370.486 209.373 371.024 209.938 371.419C210.617 371.914 211.426 372.195 212.264 372.226C213.101 372.257 213.929 372.037 214.643 371.593C215.358 371.058 215.871 370.292 216.096 369.423C216.321 368.554 216.245 367.633 215.881 366.813C215.311 365.228 212.439 364.117 210.78 364.928" fill="#E0E0E0"/>
<path d="M231.667 491.862L218.047 469.296L318.09 390.253C324.314 385.107 331.927 381.963 339.943 381.229C345.784 380.694 351.67 381.453 357.188 383.454C362.707 385.454 367.724 388.648 371.889 392.81C376.054 396.973 379.264 402.003 381.296 407.549C383.328 413.094 384.131 419.021 383.65 424.913L382.053 444.196L315.713 465.751L231.667 491.862Z" fill="#263238"/>
<path d="M359.965 438.292C359.965 438.292 359.891 438.38 359.705 438.542L358.888 439.216L355.706 441.787L353.39 443.622C352.548 444.296 351.546 444.87 350.518 445.656L347.2 447.953C346.605 448.352 345.962 448.789 345.38 449.201L343.386 450.449C340.675 452.084 337.74 453.956 334.41 455.654C332.763 456.527 331.079 457.476 329.308 458.362L323.774 460.996C315.517 464.808 307.074 468.199 298.478 471.155C280.203 477.508 263.315 482.076 251.218 485.771C248.185 486.669 245.448 487.518 243.046 488.267C240.644 489.016 238.589 489.652 236.856 490.226L232.993 491.475L231.977 491.787C231.861 491.828 231.741 491.858 231.618 491.874L231.952 491.724L232.943 491.35L236.781 489.964C238.44 489.353 240.496 488.716 242.898 487.893C245.3 487.069 248.011 486.22 251.032 485.296C263.104 481.477 279.98 476.847 298.218 470.506C307.356 467.374 315.862 463.879 323.477 460.422L328.999 457.813C330.782 456.939 332.466 456.003 334.112 455.142C337.443 453.47 340.377 451.622 343.101 450.025L345.095 448.839C345.726 448.44 346.333 448.015 346.927 447.591L350.382 445.332C351.409 444.62 352.412 444.009 353.267 443.347L355.607 441.55L358.863 439.054L359.73 438.43L359.965 438.292Z" fill="#455A64"/>
<path d="M362.392 448.84C362.085 449.067 361.747 449.248 361.389 449.376C360.72 449.676 359.742 450.088 358.516 450.537C355.319 451.725 352.042 452.684 348.71 453.408C345.375 454.125 341.995 454.609 338.594 454.856C337.294 454.943 336.229 454.98 335.499 454.98C335.118 455.009 334.735 454.988 334.36 454.918C335.748 454.666 337.15 454.491 338.557 454.394C341.133 454.107 344.748 453.607 348.574 452.771C352.4 451.935 355.891 450.911 358.368 450.113C359.685 449.615 361.028 449.19 362.392 448.84Z" fill="#455A64"/>
<path d="M314.104 394.047C314.215 394.197 292.807 411.159 266.286 431.927C239.765 452.696 218.172 469.446 218.073 469.296C217.974 469.146 239.369 452.197 265.89 431.416C292.411 410.634 314.005 393.91 314.104 394.047Z" fill="#455A64"/>
<path d="M308.284 477.92C303.492 475.349 298.107 476.872 293.513 478.432C290.455 479.468 287.322 481.115 284.177 480.229C281.936 479.593 280.265 477.733 278.544 476.173C275.072 472.954 270.995 470.469 266.555 468.863C262.115 467.257 257.401 466.564 252.691 466.824C250.001 466.955 247.461 468.11 245.584 470.057C240.867 475.212 244.42 481.902 248.642 486.282C256.165 493.99 266.098 498.84 276.761 500.012C285.539 500.935 297.611 499.712 306.476 495.868C311.961 493.496 314.772 486.969 311.9 481.702C311.089 480.11 309.832 478.795 308.284 477.92Z" fill="#FF725E"/>
<g opacity="0.4">
<path d="M308.284 482.04C303.48 479.469 298.094 480.991 293.501 482.551C290.442 483.587 287.31 485.235 284.165 484.349C281.924 483.712 280.253 481.852 278.531 480.292C275.059 477.074 270.983 474.588 266.543 472.983C262.103 471.377 257.389 470.684 252.679 470.944C249.989 471.075 247.449 472.23 245.572 474.177C244.622 475.198 243.941 476.442 243.591 477.796C244.5 481.009 246.239 483.92 248.63 486.233C256.152 493.941 266.086 498.791 276.749 499.963C285.527 500.886 297.599 499.663 306.464 495.819C308.038 495.144 309.432 494.103 310.531 492.783C311.631 491.462 312.405 489.898 312.791 488.218C312.512 486.928 311.962 485.714 311.178 484.657C310.394 483.6 309.395 482.725 308.247 482.09L308.284 482.04Z" fill="black"/>
</g>
<path d="M312.866 488.167C312.658 487.144 312.259 486.17 311.689 485.297C311.002 484.307 310.131 483.459 309.126 482.8C307.803 481.898 306.29 481.317 304.706 481.103C301.153 480.679 297.017 482.189 292.436 483.437C290.17 484.049 287.694 484.972 285.007 484.685C283.649 484.508 282.342 484.049 281.169 483.337C280.001 482.603 278.899 481.768 277.875 480.841C274.14 477.262 269.655 474.575 264.751 472.978C262.632 472.252 260.446 471.742 258.226 471.455C256.296 471.175 254.336 471.175 252.407 471.455C250.829 471.696 249.309 472.229 247.925 473.028C246.887 473.634 245.948 474.395 245.139 475.287C243.901 476.847 243.442 477.908 243.368 477.858C243.752 476.869 244.287 475.947 244.953 475.125C245.725 474.144 246.654 473.3 247.702 472.628C249.115 471.757 250.684 471.172 252.32 470.906C254.29 470.611 256.293 470.611 258.263 470.906C260.523 471.179 262.75 471.676 264.912 472.391C267.299 473.191 269.604 474.219 271.796 475.462C272.965 476.113 274.086 476.847 275.152 477.658C276.229 478.507 277.232 479.431 278.272 480.329C279.267 481.253 280.34 482.088 281.478 482.825C282.575 483.482 283.792 483.907 285.057 484.074C287.533 484.411 290.009 483.537 292.275 482.938C296.844 481.69 301.041 480.229 304.768 480.716C306.208 480.925 307.588 481.439 308.818 482.225C310.047 483.01 311.097 484.048 311.9 485.272C312.322 485.941 312.624 486.681 312.791 487.456C312.841 487.69 312.866 487.928 312.866 488.167Z" fill="#263238"/>
<path d="M312.866 488.167C312.658 487.144 312.259 486.17 311.689 485.297C311.002 484.307 310.131 483.459 309.126 482.8C307.803 481.898 306.29 481.317 304.706 481.103C301.153 480.679 297.017 482.189 292.436 483.437C290.17 484.049 287.694 484.972 285.007 484.685C283.649 484.508 282.342 484.049 281.169 483.337C280.001 482.603 278.899 481.768 277.875 480.841C274.14 477.262 269.655 474.575 264.751 472.978C262.632 472.252 260.446 471.742 258.226 471.455C256.296 471.175 254.336 471.175 252.407 471.455C250.829 471.696 249.309 472.229 247.925 473.028C246.887 473.634 245.948 474.395 245.139 475.287C243.901 476.847 243.442 477.908 243.368 477.858C243.752 476.869 244.287 475.947 244.953 475.125C245.725 474.144 246.654 473.3 247.702 472.628C249.115 471.757 250.684 471.172 252.32 470.906C254.29 470.611 256.293 470.611 258.263 470.906C260.523 471.179 262.75 471.676 264.912 472.391C267.299 473.191 269.604 474.219 271.796 475.462C272.965 476.113 274.086 476.847 275.152 477.658C276.229 478.507 277.232 479.431 278.272 480.329C279.267 481.253 280.34 482.088 281.478 482.825C282.575 483.482 283.792 483.907 285.057 484.074C287.533 484.411 290.009 483.537 292.275 482.938C296.844 481.69 301.041 480.229 304.768 480.716C306.208 480.925 307.588 481.439 308.818 482.225C310.047 483.01 311.097 484.048 311.9 485.272C312.322 485.941 312.624 486.681 312.791 487.456C312.841 487.69 312.866 487.928 312.866 488.167Z" fill="#263238"/>
<path d="M253.347 486.994C254.103 486.327 254.934 485.753 255.824 485.284C257.879 484.031 259.999 482.889 262.175 481.864C264.352 480.83 266.579 479.909 268.849 479.106C269.773 478.725 270.736 478.453 271.722 478.294C270.858 478.794 269.95 479.212 269.01 479.543C267.314 480.254 264.986 481.252 262.448 482.451C259.91 483.649 257.669 484.822 256.047 485.683C255.193 486.21 254.288 486.649 253.347 486.994Z" fill="#263238"/>
<path d="M255.044 491.837C258.066 490.004 261.196 488.357 264.417 486.907C267.547 485.265 270.772 483.815 274.074 482.563C271.052 484.397 267.922 486.043 264.702 487.494C261.574 489.14 258.349 490.591 255.044 491.837Z" fill="#263238"/>
<path d="M274.855 493.934C274.755 494.083 269.642 491.013 263.439 487.069C257.236 483.125 252.295 479.792 252.295 479.643C252.295 479.493 257.496 482.563 263.711 486.52C269.927 490.476 274.978 493.784 274.855 493.934Z" fill="#263238"/>
<path d="M277.752 488.916C276.877 488.432 276.048 487.868 275.275 487.231C273.777 486.133 271.697 484.623 269.369 483C267.042 481.378 264.924 479.942 263.377 478.906C262.494 478.401 261.665 477.807 260.9 477.134C261.843 477.497 262.744 477.962 263.587 478.519C265.197 479.456 267.388 480.841 269.778 482.463C272.168 484.086 274.161 485.671 275.597 486.869C276.397 487.459 277.121 488.146 277.752 488.916Z" fill="#263238"/>
</g>
<defs>
<clipPath id="clip0_53_491">
<rect width="500" height="500" fill="white"/>
</clipPath>
</defs>
</svg>
